<svg width="61" height="61" viewBox="0 0 61 61" fill="none" xmlns="http://www.w3.org/2000/svg">
<path d="M30.6169 59.7071C46.6831 59.7071 59.7073 46.5445 59.7073 30.3076C59.7073 14.0708 46.6831 0.908203 30.6169 0.908203C14.5506 0.908203 1.52637 14.0708 1.52637 30.3076C1.52637 46.5445 14.5506 59.7071 30.6169 59.7071Z" fill="#54B2FF"/>
<path fill-rule="evenodd" clip-rule="evenodd" d="M30.9097 42.6106C47.145 42.6106 39.2934 31.2929 60.0001 30.3076C60.0001 46.7116 46.8256 59.9999 30.6169 59.9999C14.3816 59.9999 1.20703 46.7116 1.20703 30.3076C19.5183 31.5858 14.6744 42.6106 30.9097 42.6106Z" fill="#0066BA"/>
<path d="M30.6168 53.3425C43.1993 53.3425 53.3994 43.0295 53.3994 30.3076C53.3994 17.5858 43.1993 7.27277 30.6168 7.27277C18.0342 7.27277 7.83411 17.5858 7.83411 30.3076C7.83411 43.0295 18.0342 53.3425 30.6168 53.3425Z" fill="#008CFF"/>
<path d="M30.6169 60C46.8448 60 60.0001 46.7062 60.0001 30.3076C60.0001 13.9089 46.8448 0.615234 30.6169 0.615234C14.389 0.615234 1.23364 13.9089 1.23364 30.3076C1.23364 46.7062 14.389 60 30.6169 60Z" stroke="black" stroke-width="0.87" stroke-miterlimit="22.9256"/>
<path d="M35.3013 12.1461H25.9594V33.1305H35.3013V12.1461Z" fill="white" stroke="black" stroke-width="0.57" stroke-miterlimit="22.9256"/>
<path d="M30.6167 48.6024C33.8505 48.6024 36.472 45.9795 36.472 42.7439C36.472 39.5082 33.8505 36.8853 30.6167 36.8853C27.3829 36.8853 24.7614 39.5082 24.7614 42.7439C24.7614 45.9795 27.3829 48.6024 30.6167 48.6024Z" fill="white" stroke="black" stroke-width="0.57" stroke-miterlimit="22.9256"/>
</svg>
