<svg width="210" height="210" viewBox="0 0 210 210" fill="none" xmlns="http://www.w3.org/2000/svg">
<path fill-rule="evenodd" clip-rule="evenodd" d="M0 0H210V210H0V0Z" fill="#055966"/>
<path fill-rule="evenodd" clip-rule="evenodd" d="M137.764 172.441C135.477 169.65 127.807 168.448 130.607 172.101C131.939 173.84 133.214 173.809 134.627 178.031C135.437 180.474 139.689 186.064 144.239 185.399C144.279 185.391 146.325 190.096 147.609 191.321C149.318 192.95 170.467 201.109 175.426 199.67C181.283 197.978 186.41 183.984 190.406 176.157C191.401 174.196 188.56 169.595 188.632 168.535C188.769 166.622 192.034 162.155 191.232 160.171C190.895 159.325 190.566 157 190.895 154.715C191.192 152.683 191.874 150.73 191.288 149.94C190.678 149.133 189.796 149.363 188.849 150.035C186.025 147.441 184.565 146.501 188.44 146.279C187.06 145.465 182.326 142.998 182.807 142.065C183.586 141.227 185.937 140.073 186.274 139.978C184.34 139.598 182.663 139.179 182.719 139.14C185.632 137.235 186.346 137.148 187.894 136.302C187.004 136.396 182.799 136.752 182.342 136.618C182.085 136.539 182.583 136.017 184.765 134.001C183.297 134.143 182.832 134.254 181.764 134.412C178.78 134.871 181.275 130.554 181.363 130.317C180.858 130.451 178.595 131.052 177.071 131.676C172.144 133.677 173.083 130.459 173.227 129.581C166.985 135.487 170.315 129.075 170.7 128C169.906 128.767 170.106 128.53 168.863 129.858C166.295 132.609 167.154 129.652 168.076 128.285C166.303 129.099 159.387 133.938 158.079 135.131C157.838 134.586 156.418 129.115 156.354 128.64C156.049 129.328 151.508 138.65 150.922 139.432C150.409 140.128 149.502 136.705 148.997 135.598C147.986 138.318 147.809 140.35 147.095 142.034C146.453 140.389 145.354 135.337 145.017 133.519C142.963 137.424 139.914 145.979 139.489 145.623C138.053 144.429 137.908 144.287 136.921 143.18C136.737 143.749 136.624 146.643 137.138 149.916C135.501 148.414 134.803 148.28 134.498 147.924C134.643 148.841 135.886 153.142 136.007 153.3C136.039 153.332 132.829 153.482 132.027 152.992C133.086 156.573 135.975 166.693 137.764 172.441ZM187.95 150.754C187.79 150.904 187.638 151.055 187.477 151.205C187.212 150.881 187.244 150.667 187.95 150.754ZM189.114 161.333L189.178 161.372C188.745 161.325 188.328 161.27 187.926 161.214C187.862 161.222 187.79 161.246 187.726 161.27C186.795 161.602 186.314 162.621 186.651 163.546C186.988 164.472 188.023 164.946 188.961 164.606C189.9 164.274 190.382 163.254 190.037 162.329C189.868 161.87 189.531 161.523 189.114 161.333ZM183.497 167.626L182.799 166.867C181.042 168.322 174.126 173.84 172.297 176.015C172.441 176.117 172.786 176.236 173.051 176.37C173.3 176.015 173.388 175.801 173.693 175.872C173.982 175.936 174.503 176.276 174.583 176.481C175.867 179.794 181.5 176.9 179.47 173.2C178.491 171.405 178.025 172.433 181.123 169.792C182.013 169.033 183.233 168.187 183.546 167.919C183.562 167.911 183.554 167.84 183.497 167.626ZM171.254 174.758C173.179 172.402 179.044 166.638 180.063 164.978C180.28 164.638 179.975 164.456 179.718 164.535C178.531 164.898 172.931 170.733 171.342 173.184C171.189 173.706 171.173 174.117 171.254 174.758ZM166.359 190.531C174.985 190.705 177.969 184.474 178.996 182.782C178.114 191.463 169.777 195.338 166.359 190.531ZM161.778 177.722C158.769 177.129 150.521 176.426 148.652 175.801C148.266 175.675 148.387 175.343 148.628 175.248C149.783 174.765 157.879 175.698 160.687 176.568C161.144 176.876 161.425 177.177 161.778 177.722ZM147.272 178.972C147.913 179.027 158.649 178.774 161.802 179.343C161.754 179.509 161.569 179.825 161.457 180.094C161.032 179.976 160.831 179.865 160.639 180.118C160.454 180.355 160.278 180.94 160.35 181.154C161.521 184.498 155.327 185.842 154.469 181.731C154.051 179.731 155.07 180.221 150.978 180.158C149.807 180.134 148.315 180.268 147.905 180.26C147.873 180.26 147.737 180.039 147.272 178.972ZM139.24 179.501C140.171 179.169 141.206 179.644 141.543 180.569C141.888 181.486 141.406 182.506 140.468 182.846C139.529 183.178 138.502 182.703 138.157 181.786C137.82 180.861 138.301 179.841 139.24 179.501Z" fill="#99FFF9"/>
<path fill-rule="evenodd" clip-rule="evenodd" d="M31.7638 68.441C29.4771 65.6501 21.8067 64.4484 24.6068 68.1011C25.9387 69.8405 27.2145 69.8088 28.6266 74.0308C29.437 76.4738 33.6894 82.0635 38.2387 81.3994C38.2788 81.3915 40.3248 86.0957 41.6086 87.3212C43.3175 88.9499 64.4674 97.1091 69.4259 95.6702C75.283 93.9782 80.41 79.9842 84.4057 72.157C85.4006 70.1962 82.5603 65.5948 82.6325 64.5353C82.7689 62.622 86.0344 58.155 85.2321 56.1705C84.8951 55.3246 84.5661 53.0001 84.8951 50.7152C85.1919 48.6833 85.874 46.7305 85.2883 45.9398C84.6785 45.1334 83.7959 45.3627 82.8491 46.0347C80.0248 43.4415 78.5646 42.5006 82.4399 42.2793C81.0599 41.4649 76.326 38.9981 76.8074 38.0652C77.5857 37.2271 79.9366 36.0728 80.2736 35.978C78.3399 35.5985 76.663 35.1794 76.7192 35.1399C79.6317 33.2345 80.3458 33.1475 81.8943 32.3016C81.0037 32.3964 76.7994 32.7522 76.3421 32.6178C76.0854 32.5387 76.5828 32.0169 78.7652 30.0008C77.2969 30.1432 76.8315 30.2538 75.7644 30.412C72.7797 30.8705 75.275 26.5537 75.3632 26.3165C74.8578 26.4509 72.5951 27.0518 71.0707 27.6764C66.1443 29.6767 67.083 26.4588 67.2274 25.5812C60.9852 31.4872 64.3149 25.0753 64.7001 24C63.9057 24.7669 64.1063 24.5297 62.8627 25.8579C60.2952 28.6093 61.1537 25.6524 62.0764 24.2846C60.3032 25.099 53.387 29.9376 52.0791 31.1314C51.8384 30.5859 50.4183 25.1148 50.3541 24.6404C50.0492 25.3282 45.508 34.6497 44.9222 35.4324C44.4087 36.1282 43.5021 32.7048 42.9966 31.5979C41.9856 34.3176 41.8091 36.3496 41.095 38.0336C40.4532 36.3891 39.354 31.337 39.017 29.5185C36.963 33.4242 33.9141 41.9788 33.4888 41.623C32.0526 40.4292 31.9082 40.2869 30.9213 39.18C30.7368 39.7492 30.6244 42.6429 31.1379 45.9161C29.5011 44.4139 28.8031 44.2795 28.4982 43.9237C28.6427 44.8409 29.8863 49.1419 30.0066 49.3C30.0387 49.3316 26.8293 49.4818 26.027 48.9917C27.0861 52.5732 29.9745 62.6932 31.7638 68.441ZM81.9505 46.7542C81.79 46.9044 81.6376 47.0546 81.4771 47.2048C81.2123 46.8807 81.2444 46.6672 81.9505 46.7542ZM83.1139 57.3328L83.1781 57.3723C82.7448 57.3248 82.3276 57.2695 81.9264 57.2142C81.8622 57.2221 81.79 57.2458 81.7258 57.2695C80.7951 57.6016 80.3137 58.6215 80.6507 59.5465C80.9877 60.4715 82.0227 60.9459 82.9615 60.6059C83.9002 60.2739 84.3816 59.254 84.0366 58.3289C83.8681 57.8704 83.5311 57.5225 83.1139 57.3328ZM77.4975 63.6261L76.7994 62.8671C75.0423 64.3219 68.1261 69.8405 66.2967 72.0147C66.4411 72.1175 66.7861 72.236 67.0509 72.3704C67.2996 72.0147 67.3879 71.8012 67.6928 71.8723C67.9816 71.9356 68.5032 72.2756 68.5834 72.4811C69.8672 75.7939 75.4996 72.9002 73.4697 69.2C72.4908 67.4053 72.0255 68.4331 75.1225 65.7924C76.0131 65.0334 77.2327 64.1875 77.5456 63.9187C77.5617 63.9107 77.5536 63.8396 77.4975 63.6261ZM65.2537 70.7576C67.1793 68.4015 73.0444 62.6378 74.0634 60.9775C74.28 60.6376 73.9752 60.4557 73.7184 60.5348C72.5309 60.8985 66.9306 66.7333 65.3419 69.1842C65.1895 69.706 65.1734 70.1172 65.2537 70.7576ZM60.3594 86.5306C68.9846 86.7045 71.9693 80.4744 72.9963 78.7824C72.1137 87.4635 63.7774 91.3376 60.3594 86.5306ZM55.778 73.7224C52.7692 73.1294 44.5211 72.4258 42.6516 71.8012C42.2665 71.6747 42.3868 71.3426 42.6275 71.2478C43.7829 70.7655 51.8786 71.6984 54.6868 72.5681C55.1441 72.8764 55.425 73.1769 55.778 73.7224ZM41.2716 74.9716C41.9134 75.0269 52.6488 74.774 55.802 75.3432C55.7539 75.5092 55.5693 75.8255 55.457 76.0943C55.0318 75.9757 54.8312 75.865 54.6386 76.118C54.4541 76.3552 54.2776 76.9403 54.3498 77.1537C55.5212 80.4981 49.3271 81.8421 48.4686 77.7309C48.0514 75.7306 49.0704 76.2208 44.9784 76.1575C43.807 76.1338 42.3146 76.2682 41.9054 76.2603C41.8733 76.2603 41.7369 76.0389 41.2716 74.9716ZM33.2401 75.5013C34.1708 75.1692 35.2058 75.6436 35.5428 76.5687C35.8878 77.4858 35.4064 78.5057 34.4677 78.8457C33.5289 79.1778 32.5019 78.7034 32.1569 77.7862C31.8199 76.8612 32.3013 75.8413 33.2401 75.5013Z" fill="#99FFF9"/>
<path fill-rule="evenodd" clip-rule="evenodd" d="M0 0H210V210H0V0Z" fill="#00404A" fill-opacity="0.831373"/>
</svg>
