<svg width="8" height="22" viewBox="0 0 8 22" fill="none" xmlns="http://www.w3.org/2000/svg">
<path fill-rule="evenodd" clip-rule="evenodd" d="M6.09003 12.78H1.53003V0.450012H6.09003V12.78Z" fill="#FF0000"/>
<path d="M1.53003 12.34H6.09003V13.23H1.53003L1.16003 12.78L1.53003 12.34ZM1.53003 13.23H1.16003V12.78L1.53003 13.23ZM1.90002 0.449997V12.78H1.16003V0.449997L1.53003 0L1.90002 0.449997ZM1.16003 0.449997V0H1.53003L1.16003 0.449997ZM6.09003 0.889999H1.53003V0H6.09003L6.46002 0.449997L6.09003 0.889999ZM6.09003 0H6.46002V0.449997L6.09003 0ZM5.72003 12.78V0.449997H6.46002V12.78L6.09003 13.23L5.72003 12.78ZM6.46002 12.78V13.23H6.09003L6.46002 12.78Z" fill="black"/>
<path fill-rule="evenodd" clip-rule="evenodd" d="M3.80002 20.77C2.22002 20.77 0.950012 19.5 0.950012 17.92C0.950012 16.34 2.22002 15.06 3.80002 15.06C5.38002 15.06 6.66002 16.34 6.66002 17.92C6.66002 19.5 5.38002 20.77 3.80002 20.77Z" fill="#FF0000"/>
<path d="M0.580017 17.92H1.32001V18.05L1.33002 18.17L1.34001 18.3L1.36002 18.42L1.39001 18.54L1.43001 18.66L1.47002 18.77L1.51001 18.89L1.56001 19L1.61002 19.1L1.67001 19.21L1.74001 19.31L1.81001 19.41L1.88 19.5L1.96001 19.59L2.04001 19.68L2.13 19.76L2.22002 19.84L2.31001 19.91L2.41002 19.98L2.51001 20.05L2.62001 20.11L2.72002 20.16L2.83002 20.21L2.95001 20.25L3.06001 20.29L3.18001 20.33L3.30002 20.36L3.42001 20.38L3.55002 20.39L3.67001 20.4L3.80002 20.41V21.14H3.64001L3.47002 21.13L3.31001 21.11L3.15001 21.08L3.00002 21.04L2.84001 21L2.69002 20.95L2.55002 20.89L2.40001 20.83L2.26001 20.75L2.13 20.68L2.00002 20.59L1.87001 20.5L1.75002 20.41L1.64001 20.31L1.52002 20.2L1.42001 20.09L1.32001 19.97L1.22002 19.85L1.13 19.72L1.05002 19.59L0.970016 19.46L0.900009 19.32L0.830017 19.17L0.77002 19.03L0.720016 18.88L0.680008 18.73L0.640015 18.57L0.62001 18.41L0.590012 18.25L0.580017 18.08V17.92V17.92ZM3.80002 14.7V15.43L3.67001 15.44L3.55002 15.45L3.42001 15.46L3.30002 15.48L3.18001 15.51L3.06001 15.55L2.95001 15.58L2.83002 15.63L2.72002 15.68L2.62001 15.73L2.51001 15.79L2.41002 15.86L2.31001 15.93L2.22002 16L2.13 16.08L2.04001 16.16L1.96001 16.25L1.88 16.34L1.81001 16.43L1.74001 16.53L1.67001 16.63L1.61002 16.74L1.56001 16.84L1.51001 16.95L1.47002 17.06L1.43001 17.18L1.39001 17.3L1.36002 17.42L1.34001 17.54L1.33002 17.67L1.32001 17.79V17.92H0.580017V17.76L0.590012 17.59L0.62001 17.43L0.640015 17.27L0.680008 17.11L0.720016 16.96L0.77002 16.81L0.830017 16.67L0.900009 16.52L0.970016 16.38L1.05002 16.25L1.13 16.12L1.22002 15.99L1.32001 15.87L1.42001 15.75L1.52002 15.64L1.64001 15.53L1.75002 15.43L1.87001 15.34L2.00002 15.25L2.13 15.16L2.26001 15.09L2.40001 15.01L2.55002 14.95L2.69002 14.89L2.84001 14.84L3.00002 14.8L3.15001 14.76L3.31001 14.73L3.47002 14.71L3.64001 14.7H3.80002V14.7ZM7.03001 17.92H6.29001V17.79L6.28001 17.67L6.26001 17.54L6.24001 17.42L6.21001 17.3L6.18001 17.18L6.14001 17.06L6.09001 16.95L6.04001 16.84L5.99001 16.74L5.93001 16.63L5.86002 16.53L5.80002 16.43L5.72002 16.34L5.64001 16.25L5.56001 16.16L5.48001 16.08L5.38 16L5.29001 15.93L5.19002 15.86L5.09001 15.79L4.99001 15.73L4.88 15.68L4.77002 15.63L4.66002 15.58L4.54001 15.54L4.42001 15.51L4.30002 15.48L4.18001 15.46L4.06001 15.45L3.93001 15.44L3.80002 15.43V14.7H3.97002L4.13 14.71L4.29001 14.73L4.45001 14.76L4.61002 14.8L4.76001 14.84L4.91002 14.89L5.06001 14.95L5.20001 15.01L5.34001 15.09L5.47002 15.16L5.60001 15.25L5.73001 15.34L5.85001 15.43L5.97002 15.53L6.08002 15.64L6.19002 15.75L6.29001 15.87L6.39001 15.99L6.47002 16.12L6.56001 16.25L6.64001 16.38L6.71001 16.52L6.77002 16.67L6.83002 16.81L6.88 16.96L6.92001 17.11L6.96001 17.27L6.99001 17.43L7.01001 17.59L7.02002 17.76L7.03001 17.92V17.92ZM3.80002 21.14V20.41L3.93001 20.4L4.06001 20.39L4.18001 20.38L4.30002 20.36L4.42001 20.33L4.54001 20.29L4.66002 20.25L4.77002 20.21L4.88 20.16L4.99001 20.11L5.09001 20.05L5.19002 19.98L5.29001 19.91L5.38 19.84L5.48001 19.76L5.56001 19.68L5.64001 19.59L5.72002 19.5L5.80002 19.41L5.86002 19.31L5.93001 19.21L5.99001 19.1L6.04001 19L6.09001 18.89L6.14001 18.77L6.18001 18.66L6.21001 18.54L6.24001 18.42L6.26001 18.3L6.28001 18.17L6.29001 18.05V17.92H7.03001L7.02002 18.08L7.01001 18.25L6.99001 18.41L6.96001 18.57L6.92001 18.73L6.88 18.88L6.83002 19.03L6.77002 19.17L6.71001 19.32L6.64001 19.46L6.56001 19.59L6.47002 19.72L6.39001 19.85L6.29001 19.97L6.19002 20.09L6.08002 20.2L5.97002 20.31L5.85001 20.41L5.73001 20.5L5.60001 20.59L5.47002 20.68L5.34001 20.75L5.20001 20.83L5.06001 20.89L4.91002 20.95L4.76001 21L4.61002 21.04L4.45001 21.08L4.29001 21.11L4.13 21.13L3.97002 21.14H3.80002V21.14Z" fill="black"/>
</svg>
