<svg width="30" height="16" viewBox="0 0 30 16" fill="none" xmlns="http://www.w3.org/2000/svg">
<path d="M14.6318 0.631927H25.0638L28.5358 7.59199L25.0638 14.5519H14.6318L18.1038 7.59199L14.6318 0.631927Z" fill="white"/>
<path d="M25.0639 1.096H14.6319V0.167969H25.0639L25.4799 0.423926L25.0639 1.096V1.096ZM25.0639 0.167969H25.352L25.4799 0.423926L25.0639 0.167969ZM28.1359 7.8L24.6479 0.839941L25.4799 0.423926L28.952 7.38398V7.8H28.1359ZM28.952 7.38398L29.0639 7.59199L28.952 7.8V7.38398ZM24.6479 14.3439L28.1359 7.38398L28.952 7.8L25.4799 14.76L25.0639 15.016L24.6479 14.3439ZM25.4799 14.76L25.352 15.016H25.0639L25.4799 14.76ZM14.6319 14.088H25.0639V15.016H14.6319L14.2159 14.3439L14.6319 14.088V14.088ZM14.6319 15.016H13.8799L14.2159 14.3439L14.6319 15.016ZM18.5199 7.8L15.0479 14.76L14.2159 14.3439L17.6879 7.38398H18.5199V7.8ZM18.5199 7.38398L18.6319 7.59199L18.5199 7.8V7.38398ZM15.0479 0.423926L18.5199 7.38398L17.6879 7.8L14.2159 0.839941L14.6319 0.167969L15.0479 0.423926ZM14.2159 0.839941L13.8799 0.167969H14.6319L14.2159 0.839941Z" fill="black"/>
<path d="M1.41602 0.631927H11.864L15.336 7.59199L11.864 14.5519H1.41602L4.904 7.59199L1.41602 0.631927Z" fill="white"/>
<path d="M11.8641 1.096H1.41611V0.167969H11.8641L12.2801 0.423926L11.8641 1.096ZM11.8641 0.167969H12.1521L12.2801 0.423926L11.8641 0.167969ZM14.9201 7.8L11.4481 0.839941L12.2801 0.423926L15.7521 7.38398V7.8H14.9201ZM15.7521 7.38398L15.8481 7.59199L15.7521 7.8V7.38398ZM11.4481 14.3439L14.9201 7.38398L15.7521 7.8L12.2801 14.76L11.8641 15.016L11.4481 14.3439ZM12.2801 14.76L12.1521 15.016H11.8641L12.2801 14.76ZM1.41611 14.088H11.8641V15.016H1.41611L1.01611 14.3439L1.41611 14.088ZM1.41611 15.016H0.664062L1.01611 14.3439L1.41611 15.016ZM5.32012 7.8L1.83213 14.76L1.01611 14.3439L4.48809 7.38398H5.32012V7.8ZM5.32012 7.38398L5.41611 7.59199L5.32012 7.8V7.38398ZM1.83213 0.423926L5.32012 7.38398L4.48809 7.8L1.01611 0.839941L1.41611 0.167969L1.83213 0.423926ZM1.01611 0.839941L0.664062 0.167969H1.41611L1.01611 0.839941Z" fill="black"/>
</svg>
