<svg width="67" height="65" viewBox="0 0 67 65" fill="none" xmlns="http://www.w3.org/2000/svg">
<path fill-rule="evenodd" clip-rule="evenodd" d="M34.3201 63.2398H46.4534V55.1599H38.3734V43.5332C45.1734 41.8799 49.4134 38.7332 51.0134 34.0398C61.2267 29.8532 66.1067 20.3065 65.8667 5.6665H52.7201V1.6665H33.9468H15.2001V5.6665H2.0534C1.8134 20.3065 6.66673 29.8532 16.9067 34.0398C18.5067 38.7332 22.7201 41.8799 29.5467 43.5332V55.1599H21.4668V63.2398H34.3201ZM33.9468 8.27985L36.9334 17.4798L46.5867 17.4532L38.7467 23.1065L41.7601 32.3065L33.9468 26.5998L26.1601 32.3065L29.1467 23.1065L21.3334 17.4532L30.9868 17.4798L33.9468 8.27985ZM52.7201 25.6665C56.3467 22.1198 58.9867 17.7732 59.4134 11.6932H52.7201V25.6665ZM15.4134 25.6665C11.7867 22.1198 9.14673 17.7732 8.72007 11.6932H15.4134V25.6665Z" fill="white"/>
<path d="M46.4532 64.3599H34.3199V62.1466H46.4532L47.5732 63.2399L46.4532 64.3599ZM47.5732 63.2399V64.3599H46.4532L47.5732 63.2399ZM47.5732 55.1599V63.2399H45.3332V55.1599L46.4532 54.0399L47.5732 55.1599ZM46.4532 54.0399H47.5732V55.1599L46.4532 54.0399ZM38.3732 54.0399H46.4532V56.2799H38.3732L37.2532 55.1599L38.3732 54.0399ZM38.3732 56.2799H37.2532V55.1599L38.3732 56.2799ZM39.4932 43.5332V55.1599H37.2532V43.5332L38.1066 42.4399L39.4932 43.5332ZM37.2532 43.5332V42.6532L38.1066 42.4399L37.2532 43.5332ZM50.5866 32.9999L51.4399 35.0799L52.0799 34.4132L51.8932 34.8666L51.7066 35.3466L51.4932 35.7999L51.2799 36.2532L51.0399 36.6799L50.7732 37.1066L50.5066 37.5332L50.2132 37.9332L49.9199 38.3332L49.5999 38.7066L49.2532 39.1066L48.9066 39.4532L48.5332 39.8266L48.1332 40.1466L47.7332 40.4932L47.3066 40.8132L46.8799 41.1332L46.4266 41.4266L45.9732 41.7199L45.4932 42.0132L45.0132 42.2799L44.5066 42.5466L43.9732 42.7866L43.4399 43.0266L42.8799 43.2666L42.3199 43.4799L41.7332 43.6932L41.1466 43.9066L40.5332 44.0932L39.9199 44.2799L39.2799 44.4399L38.6399 44.5999L38.1066 42.4399L38.7199 42.2799L39.3066 42.1199L39.8932 41.9599L40.4532 41.7732L41.0132 41.5866L41.5466 41.3999L42.0532 41.1866L42.5599 40.9732L43.0399 40.7599L43.4932 40.5466L43.9466 40.3066L44.3999 40.0666L44.8266 39.8266L45.2266 39.5599L45.5999 39.2932L45.9732 39.0266L46.3466 38.7599L46.6932 38.4666L47.0132 38.1732L47.3332 37.8799L47.6266 37.5599L47.9199 37.2666L48.1866 36.9199L48.4266 36.5999L48.6666 36.2799L48.8799 35.9332L49.1199 35.5599L49.3066 35.2132L49.4932 34.8399L49.6532 34.4666L49.8132 34.0666L49.9466 33.6932L50.5866 32.9999ZM49.9466 33.6932L50.1332 33.2132L50.5866 32.9999L49.9466 33.6932ZM65.8666 6.75991V4.54657L66.9866 5.63991V7.02657L66.9599 8.38658L66.9066 9.69324L66.8266 10.9999L66.7199 12.2532L66.5599 13.5066L66.3732 14.7066L66.1866 15.8799L65.9466 17.0532L65.6532 18.1732L65.3599 19.2666L65.0132 20.3332L64.6399 21.3466L64.2666 22.3599L63.8132 23.3466L63.3599 24.2799L62.8532 25.1866L62.3199 26.0932L61.7599 26.9466L61.1466 27.7466L60.5332 28.5466L59.8666 29.2932L59.1732 30.0399L58.4266 30.7332L57.6799 31.3999L56.8799 32.0132L56.0532 32.5999L55.1732 33.1599L54.2932 33.6932L53.3599 34.1999L52.4266 34.6532L51.4399 35.0799L50.5866 32.9999L51.4932 32.6266L52.3732 32.1999L53.1999 31.7466L53.9999 31.2666L54.7732 30.7599L55.5199 30.2266L56.2399 29.6666L56.9332 29.0799L57.5732 28.4399L58.2132 27.7999L58.7999 27.1066L59.3866 26.4132L59.9199 25.6666L60.4266 24.8932L60.9066 24.0932L61.3599 23.2399L61.7866 22.3866L62.1866 21.5066L62.5599 20.5732L62.9066 19.6132L63.2266 18.6266L63.4932 17.6132L63.7599 16.5466L63.9732 15.4799L64.1866 14.3599L64.3466 13.2132L64.4799 12.0399L64.6132 10.8132L64.6932 9.58657L64.7466 8.30658L64.7732 6.9999L64.7466 5.66656L65.8666 6.75991ZM65.8666 4.54657H66.9599L66.9866 5.63991L65.8666 4.54657ZM52.7199 4.54657H65.8666V6.75991H52.7199L51.5999 5.66656L52.7199 4.54657ZM52.7199 6.75991H51.5999V5.66656L52.7199 6.75991ZM53.8399 1.66656V5.66656H51.5999V1.66656L52.7199 0.54657L53.8399 1.66656ZM52.7199 0.54657H53.8399V1.66656L52.7199 0.54657ZM33.9466 0.54657H52.7199V2.78658H33.9466V0.54657ZM15.1999 0.54657H33.9466V2.78658H15.1999L14.0799 1.66656L15.1999 0.54657ZM14.0799 1.66656V0.54657H15.1999L14.0799 1.66656ZM14.0799 5.66656V1.66656H16.3199V5.66656L15.1999 6.75991L14.0799 5.66656ZM16.3199 5.66656V6.75991H15.1999L16.3199 5.66656ZM2.05322 4.54657H15.1999V6.75991H2.05322L0.933228 5.63991L2.05322 4.54657ZM0.933228 5.63991V4.54657H2.05322L0.933228 5.63991ZM17.9466 33.6932L15.8399 34.4132L16.4799 35.0799L15.4932 34.6532L14.5332 34.1999L13.6266 33.6932L12.7199 33.1599L11.8666 32.5999L11.0399 32.0132L10.2399 31.3999L9.49323 30.7332L8.74656 30.0399L8.05322 29.2932L7.38656 28.5466L6.77323 27.7466L6.15989 26.9466L5.59989 26.0932L5.06657 25.1866L4.5599 24.2799L4.10657 23.3466L3.65324 22.3599L3.25323 21.3466L2.8799 20.3332L2.5599 19.2666L2.23989 18.1732L1.97323 17.0532L1.73324 15.8799L1.5199 14.7066L1.3599 13.5066L1.19989 12.2532L1.09324 10.9999L0.986572 9.69324L0.933228 8.38658V7.02657V5.63991L3.17324 5.66656L3.14657 6.9999L3.17324 8.30658L3.22656 9.58657L3.30656 10.8132L3.41323 12.0399L3.57322 13.2132L3.73324 14.3599L3.9199 15.4799L4.15989 16.5466L4.3999 17.6132L4.69324 18.6266L5.01322 19.6132L5.3599 20.5732L5.73324 21.5066L6.10657 22.3866L6.53322 23.2399L6.98657 24.0932L7.49323 24.8932L7.9999 25.6666L8.53322 26.4132L9.11989 27.1066L9.70656 27.7999L10.3199 28.4399L10.9866 29.0799L11.6799 29.6666L12.3732 30.2266L13.1199 30.7599L13.9199 31.2666L14.7199 31.7466L15.5466 32.1999L16.4266 32.6266L17.3332 32.9999L17.9466 33.6932ZM17.3332 32.9999L17.7866 33.2132L17.9466 33.6932L17.3332 32.9999ZM30.6666 43.5332H28.4266L29.2799 44.5999L28.6399 44.4399L27.9999 44.2799L27.3866 44.0932L26.7732 43.9066L26.1599 43.6932L25.5999 43.4799L25.0132 43.2666L24.4799 43.0266L23.9466 42.7866L23.4132 42.5466L22.9066 42.2799L22.4266 42.0132L21.9466 41.7199L21.4666 41.4266L21.0399 41.1332L20.5866 40.8132L20.1866 40.4932L19.7866 40.1466L19.3866 39.8266L19.0132 39.4532L18.6666 39.1066L18.3199 38.7066L17.9999 38.3332L17.7066 37.9332L17.4132 37.5332L17.1199 37.1066L16.8799 36.6799L16.6399 36.2532L16.3999 35.7999L16.2132 35.3466L16.0266 34.8666L15.8399 34.4132L17.9466 33.6932L18.1066 34.0666L18.2666 34.4666L18.4266 34.8399L18.6132 35.2132L18.7999 35.5599L19.0132 35.9332L19.2532 36.2799L19.4932 36.5999L19.7332 36.9199L19.9999 37.2666L20.2932 37.5599L20.5866 37.8799L20.9066 38.1732L21.2266 38.4666L21.5732 38.7599L21.9199 39.0266L22.3199 39.2932L22.6932 39.5599L23.0932 39.8266L23.5199 40.0666L23.9732 40.3066L24.4266 40.5466L24.8799 40.7599L25.3599 40.9732L25.8666 41.1866L26.3732 41.3999L26.9066 41.5866L27.4666 41.7732L28.0266 41.9599L28.6132 42.1199L29.1999 42.2799L29.8132 42.4399L30.6666 43.5332ZM29.8132 42.4399L30.6666 42.6532V43.5332L29.8132 42.4399ZM28.4266 55.1599V43.5332H30.6666V55.1599L29.5466 56.2799L28.4266 55.1599ZM30.6666 55.1599V56.2799H29.5466L30.6666 55.1599ZM21.4666 54.0399H29.5466V56.2799H21.4666L20.3466 55.1599L21.4666 54.0399ZM20.3466 55.1599V54.0399H21.4666L20.3466 55.1599ZM20.3466 63.2399V55.1599H22.5599V63.2399L21.4666 64.3599L20.3466 63.2399ZM21.4666 64.3599H20.3466V63.2399L21.4666 64.3599ZM34.3199 64.3599H21.4666V62.1466H34.3199V64.3599ZM35.8666 17.8266L32.9066 8.62657L35.0132 7.93323L37.9732 17.1332L36.9332 18.5999L35.8666 17.8266ZM36.9332 18.5999H36.1066L35.8666 17.8266L36.9332 18.5999ZM46.5866 18.5732L36.9332 18.5999V16.3599L46.5866 16.3332L47.2266 18.3599L46.5866 18.5732ZM46.5866 16.3332H50.0266L47.2266 18.3599L46.5866 16.3332ZM38.1066 22.2266L45.9199 16.5466L47.2266 18.3599L39.4132 24.0132L37.7066 23.4532L38.1066 22.2266ZM37.7066 23.4532L37.4399 22.6799L38.1066 22.2266L37.7066 23.4532ZM40.6932 32.6532L37.7066 23.4532L39.8132 22.7599L42.8266 31.9599L41.0932 33.1866L40.6932 32.6532ZM42.8266 31.9599L43.8932 35.2399L41.0932 33.1866L42.8266 31.9599ZM34.6132 25.6932L42.4266 31.3999L41.0932 33.1866L33.3066 27.5066V25.6932H34.6132ZM33.3066 25.6932L33.9466 25.2132L34.6132 25.6932H33.3066ZM25.4932 31.3999L33.3066 25.6932L34.6132 27.5066L26.7999 33.1866L25.0932 31.9599L25.4932 31.3999ZM26.7999 33.1866L24.0266 35.2399L25.0932 31.9599L26.7999 33.1866ZM30.2132 23.4532L27.2266 32.6532L25.0932 31.9599L28.1066 22.7599L29.8132 22.2266L30.2132 23.4532ZM29.8132 22.2266L30.4799 22.6799L30.2132 23.4532L29.8132 22.2266ZM21.9732 16.5466L29.8132 22.2266L28.5066 24.0132L20.6666 18.3599L21.3332 16.3332L21.9732 16.5466ZM20.6666 18.3599L17.8666 16.3332H21.3332L20.6666 18.3599ZM30.9866 18.5999L21.3332 18.5732V16.3332L30.9866 16.3599L32.0532 17.8266L30.9866 18.5999ZM32.0532 17.8266L31.8132 18.5999H30.9866L32.0532 17.8266ZM35.0132 8.62657L32.0532 17.8266L29.9199 17.1332L32.9066 7.93323H35.0132V8.62657ZM32.9066 7.93323L33.9466 4.65324L35.0132 7.93323H32.9066ZM59.4132 12.8132V10.5732L60.5332 11.7732L60.4799 12.3599L60.4266 12.9466L60.3466 13.5332L60.2666 14.0932L60.1599 14.6266L60.0266 15.1866L59.9199 15.7199L59.7866 16.2532L59.6266 16.7599L59.4666 17.2666L59.2799 17.7732L59.1199 18.2532L58.9066 18.7332L58.7199 19.2132L58.4799 19.6932L58.2666 20.1466L58.0266 20.5999L57.7866 21.0266L57.5199 21.4532L57.2532 21.8799L56.9866 22.3066L56.7199 22.7332L56.4266 23.1332L56.1332 23.5332L55.8132 23.9066L55.5199 24.3066L55.1999 24.6799L54.8532 25.0532L54.5332 25.3999L54.1866 25.7732L53.8399 26.1199L53.4932 26.4666L51.9466 24.8666L52.2666 24.5466L52.5866 24.2266L52.9066 23.8799L53.1999 23.5599L53.4932 23.2132L53.7866 22.8666L54.0799 22.5199L54.3466 22.1732L54.6132 21.7999L54.8799 21.4532L55.1466 21.0799L55.3866 20.6799L55.6266 20.3066L55.8399 19.9332L56.0532 19.5332L56.2666 19.1332L56.4799 18.7066L56.6666 18.3066L56.8532 17.8799L57.0399 17.4532L57.1999 16.9999L57.3332 16.5732L57.4932 16.1199L57.6266 15.6399L57.7332 15.1866L57.8666 14.7066L57.9732 14.1999L58.0532 13.7199L58.1332 13.2132L58.2132 12.6799L58.2666 12.1466L58.3199 11.6132L59.4132 12.8132ZM59.4132 10.5732H60.6132L60.5332 11.7732L59.4132 10.5732ZM52.7199 10.5732H59.4132V12.8132H52.7199L51.5999 11.6932L52.7199 10.5732ZM51.5999 11.6932V10.5732H52.7199L51.5999 11.6932ZM51.5999 25.6666V11.6932H53.8399V25.6666L53.4932 26.4666L51.5999 25.6666ZM53.4932 26.4666L51.5999 28.3066V25.6666L53.4932 26.4666ZM8.71989 10.5732V12.8132L9.8399 11.6132L9.86656 12.1466L9.9199 12.6799L9.9999 13.2132L10.0799 13.7199L10.1599 14.1999L10.2666 14.7066L10.3999 15.1866L10.5066 15.6399L10.6399 16.1199L10.7999 16.5732L10.9332 16.9999L11.1199 17.4532L11.2799 17.8799L11.4666 18.3066L11.6532 18.7066L11.8666 19.1332L12.0799 19.5332L12.2932 19.9332L12.5066 20.3066L12.7466 20.7066L12.9866 21.0799L13.2532 21.4532L13.5199 21.7999L13.7866 22.1732L14.0532 22.5199L14.3466 22.8666L14.6399 23.2132L14.9332 23.5599L15.2532 23.8799L15.5466 24.2266L15.8666 24.5466L16.1866 24.8666L14.6399 26.4666L14.2932 26.1199L13.9466 25.7732L13.5999 25.3999L13.2799 25.0532L12.9332 24.6799L12.6132 24.3066L12.3199 23.9066L11.9999 23.5332L11.7066 23.1332L11.4132 22.7332L11.1466 22.3066L10.8799 21.8799L10.6132 21.4532L10.3466 21.0266L10.1066 20.5999L9.86656 20.1466L9.65324 19.6932L9.4399 19.2132L9.22656 18.7332L9.0399 18.2532L8.85323 17.7732L8.66656 17.2666L8.50657 16.7599L8.34656 16.2532L8.21324 15.7199L8.10657 15.1866L7.97323 14.6266L7.89323 14.0932L7.78656 13.5332L7.70656 12.9466L7.65324 12.3599L7.59989 11.7732L8.71989 10.5732ZM7.59989 11.7732L7.5199 10.5732H8.71989L7.59989 11.7732ZM15.4132 12.8132H8.71989V10.5732H15.4132L16.5332 11.6932L15.4132 12.8132ZM15.4132 10.5732H16.5332V11.6932L15.4132 10.5732ZM14.2932 25.6666V11.6932H16.5332V25.6666L14.6399 26.4666L14.2932 25.6666ZM16.5332 25.6666V28.3066L14.6399 26.4666L16.5332 25.6666Z" fill="black"/>
</svg>
