<svg width="120" height="45" viewBox="0 0 120 45" fill="none" xmlns="http://www.w3.org/2000/svg">
<path d="M32.1969 18.87H26.0969V30.99H32.1969V18.87Z" fill="#7A2CAB"/>
<path d="M32.1969 24.93H26.0969V30.99H32.1969V24.93Z" fill="#522170"/>
<path d="M32.1969 18.87H26.0969V30.99H32.1969V18.87Z" stroke="black" stroke-miterlimit="22.9256"/>
<path fill-rule="evenodd" clip-rule="evenodd" d="M86.1969 23.28H108.477V1H111.857V23.28V26.58H86.1969V23.28Z" fill="#7A2CAB"/>
<path fill-rule="evenodd" clip-rule="evenodd" d="M108.477 8.87V1H111.857V8.87H108.477Z" fill="#522170"/>
<path fill-rule="evenodd" clip-rule="evenodd" d="M86.1969 23.28H108.477V1H111.857V23.28V26.58H86.1969V23.28Z" stroke="black" stroke-miterlimit="22.9256"/>
<path d="M5.93695 1.08002C8.71695 10.19 3.54695 18.98 13.097 18.98C22.727 18.98 19.607 23.31 26.097 24.93" stroke="black" stroke-width="2" stroke-miterlimit="22.9256"/>
<path d="M2.16695 1.08002C1.75695 10.66 2.01695 22.29 8.91695 22.49C14.7969 22.66 20.587 22.36 26.097 22.36" stroke="black" stroke-width="2" stroke-miterlimit="22.9256"/>
<path d="M86.1969 18.87H80.0969V30.99H86.1969V18.87Z" fill="#7A2CAB"/>
<path d="M86.1969 24.93H80.0969V30.99H86.1969V24.93Z" fill="#522170"/>
<path d="M86.1969 18.87H80.0969V30.99H86.1969V18.87Z" stroke="black" stroke-miterlimit="22.9256"/>
<path fill-rule="evenodd" clip-rule="evenodd" d="M86.757 23.85L86.657 21.71C97.067 20.15 100.287 11.96 100.627 1.12002L102.747 1.08002C102.117 14.31 97.327 22.54 86.757 23.85Z" fill="url(#paint0_linear_517_49)" stroke="black" stroke-width="0.8" stroke-miterlimit="22.9256"/>
<path fill-rule="evenodd" clip-rule="evenodd" d="M86.1969 29.94V27.78C88.6669 28.12 90.9469 28 92.8269 28.04C98.2169 28.15 102.127 26.59 103.487 22.64C105.067 18.05 104.707 10.58 104.127 1.08002H105.887C106.107 4.64002 106.197 7.95002 106.327 11.44C106.747 22.42 105.327 30.4 92.2369 29.98C90.5969 29.93 88.4269 30.07 86.1969 29.94V29.94Z" fill="url(#paint1_linear_517_49)" stroke="black" stroke-width="0.8" stroke-miterlimit="22.9256"/>
<path fill-rule="evenodd" clip-rule="evenodd" d="M15.4169 1.08002H13.5369L12.9369 32.36C12.7069 37.16 15.4369 38.7 19.0969 35.74C21.4269 33.88 24.2369 30.8 26.0969 30.17V27.96C23.6369 28.52 21.6369 31.05 19.5369 32.78C13.0769 38.1 15.3169 34.81 15.1969 17.81C15.1569 12.17 15.4169 6.06002 15.4169 1.08002V1.08002Z" fill="url(#paint2_linear_517_49)" stroke="black" stroke-width="0.8" stroke-miterlimit="22.9256"/>
<path fill-rule="evenodd" clip-rule="evenodd" d="M19.657 1.08002H17.767C16.567 13.59 13.397 28.07 25.517 27.4L25.6669 25.41C15.1869 26.18 18.667 12.06 19.657 1.08002V1.08002Z" fill="url(#paint3_linear_517_49)" stroke="black" stroke-width="0.8" stroke-miterlimit="22.9256"/>
<path fill-rule="evenodd" clip-rule="evenodd" d="M3.21694 1.41998L1.08693 1.56998C0.746935 11.52 1.24694 18.4 5.45694 22.14C9.48695 25.71 15.6269 21.95 25.6769 23.63L25.7669 21.53C19.9969 20.3 14.4369 21.94 10.0669 21.52C7.33695 21.25 5.54695 19.94 4.39695 16.61C3.35695 13.6 2.72694 8.91998 3.21694 1.41998V1.41998Z" fill="url(#paint4_linear_517_49)" stroke="black" stroke-width="0.8" stroke-miterlimit="22.9256"/>
<path fill-rule="evenodd" clip-rule="evenodd" d="M95.307 27.88C95.547 28.33 101.277 28.91 97.997 29.33C97.427 29.4 94.787 29.95 93.897 29.98C93.947 29.06 93.267 28.34 92.667 27.95C93.147 28.02 93.097 27.86 95.307 27.88Z" fill="black"/>
<path fill-rule="evenodd" clip-rule="evenodd" d="M13.0469 26.62C12.9269 26.34 13.1669 23.83 12.9569 23.59C13.5269 23.67 14.5069 23.76 14.9869 23.5C15.0669 23.45 15.0369 26.27 15.0369 26.6C15.0369 25.89 13.3069 25.94 13.2169 26.59C13.1269 26.6 13.0769 26.7 13.0469 26.62V26.62Z" fill="black"/>
<path d="M86.407 23.58C94.407 24.08 103.407 28.08 105.907 29.08C109.157 30.3799 114.236 28.5461 115.407 23.08C116.907 16.08 116.907 7.58002 116.907 5.58002C116.907 1.58003 118.907 2.08001 118.907 5.58002C118.999 13.8232 118.407 20.08 117.407 23.58C116.407 27.08 112.407 33.08 106.907 31.58C101.407 30.08 95.907 26.58 86.407 25.58V23.58Z" fill="url(#paint5_linear_517_49)" stroke="black"/>
<path d="M70.787 6.17999H41.527C36.3797 6.17999 32.207 9.62292 32.207 13.87V35.99C32.207 40.2371 36.3797 43.68 41.527 43.68H70.787C75.9343 43.68 80.107 40.2371 80.107 35.99V13.87C80.107 9.62292 75.9343 6.17999 70.787 6.17999Z" fill="#291238"/>
<path d="M69.967 7.20996H42.337C37.4714 7.20996 33.527 10.4648 33.527 14.48V35.37C33.527 39.3851 37.4714 42.64 42.337 42.64H69.967C74.8327 42.64 78.777 39.3851 78.777 35.37V14.48C78.777 10.4648 74.8327 7.20996 69.967 7.20996Z" fill="#7A2CAB"/>
<path fill-rule="evenodd" clip-rule="evenodd" d="M78.777 35.37C78.777 39.37 75.507 42.64 71.507 42.64H40.797C36.797 42.64 33.527 39.37 33.527 35.37H78.777V35.37Z" fill="#9D49D1"/>
<path fill-rule="evenodd" clip-rule="evenodd" d="M78.777 14.48C78.777 10.48 75.507 7.20996 71.507 7.20996H40.797C36.797 7.20996 33.527 10.48 33.527 14.48H78.777V14.48Z" fill="#522170"/>
<path fill-rule="evenodd" clip-rule="evenodd" d="M78.777 30.48V35.37C78.777 39.37 75.507 42.64 71.507 42.64H64.9771L78.777 30.48Z" fill="#B763EB"/>
<path fill-rule="evenodd" clip-rule="evenodd" d="M40.797 7.20996H45.987L33.527 21.58V14.48C33.527 10.48 36.797 7.20996 40.797 7.20996V7.20996Z" fill="#39144F"/>
<path d="M72.407 7.17999H39.897V5.17999H72.407V7.17999ZM81.107 13.87H79.097L79.087 13.53L79.057 13.19L79.017 12.85L78.957 12.53L78.877 12.2L78.787 11.89L78.687 11.58L78.567 11.27L78.427 10.98L78.277 10.69L78.117 10.41L77.947 10.13L77.757 9.87L77.557 9.62L77.347 9.38L77.127 9.13999L76.897 8.91999L76.647 8.70999L76.397 8.50999L76.137 8.31999L75.857 8.14999L75.587 7.99L75.297 7.84L74.997 7.70999L74.697 7.57999L74.387 7.48L74.067 7.38999L73.747 7.31L73.417 7.25999L73.087 7.20999L72.747 7.18999L72.407 7.17999V5.17999L72.857 5.18999L73.287 5.21999L73.727 5.27999L74.157 5.35999L74.577 5.45L74.987 5.56999L75.397 5.70999L75.787 5.87L76.177 6.03999L76.547 6.23L76.917 6.43999L77.267 6.66999L77.607 6.91L77.937 7.16999L78.247 7.43999L78.547 7.73L78.837 8.02999L79.117 8.34999L79.367 8.67999L79.617 9.02L79.837 9.37L80.047 9.73L80.247 10.11L80.417 10.49L80.577 10.89L80.707 11.29L80.827 11.7L80.927 12.12L81.007 12.55L81.057 12.99L81.087 13.42L81.107 13.87ZM79.097 35.99V13.87H81.107V35.99H79.097ZM72.407 44.68V42.68L72.747 42.67L73.087 42.64L73.417 42.6L73.747 42.54L74.067 42.47L74.387 42.38L74.697 42.27L74.997 42.15L75.297 42.02L75.577 41.87L75.857 41.71L76.137 41.53L76.397 41.35L76.647 41.15L76.897 40.94L77.127 40.71L77.347 40.48L77.557 40.24L77.757 39.98L77.947 39.72L78.117 39.45L78.277 39.17L78.427 38.88L78.567 38.58L78.687 38.28L78.787 37.97L78.877 37.65L78.957 37.33L79.017 37L79.057 36.67L79.087 36.33L79.097 35.99H81.107L81.087 36.43L81.057 36.87L81.007 37.31L80.927 37.73L80.827 38.15L80.707 38.56L80.577 38.97L80.417 39.36L80.247 39.75L80.047 40.12L79.837 40.48L79.617 40.84L79.367 41.18L79.117 41.51L78.837 41.82L78.547 42.12L78.247 42.41L77.937 42.69L77.607 42.94L77.267 43.19L76.917 43.41L76.547 43.62L76.177 43.82L75.787 43.99L75.397 44.15L74.987 44.28L74.577 44.4L74.157 44.5L73.727 44.58L73.287 44.63L72.857 44.66L72.407 44.68V44.68ZM39.897 42.68H72.407V44.68H39.897V42.68ZM31.197 35.99H33.207L33.217 36.33L33.247 36.67L33.287 37L33.347 37.33L33.417 37.65L33.507 37.97L33.617 38.28L33.737 38.58L33.867 38.88L34.017 39.17L34.177 39.45L34.357 39.72L34.537 39.98L34.737 40.24L34.957 40.48L35.177 40.71L35.407 40.94L35.647 41.15L35.907 41.35L36.167 41.53L36.437 41.71L36.717 41.87L37.007 42.02L37.297 42.15L37.607 42.27L37.917 42.38L38.227 42.47L38.557 42.54L38.877 42.6L39.207 42.64L39.547 42.67L39.897 42.68V44.68L39.447 44.66L39.007 44.63L38.577 44.58L38.147 44.5L37.727 44.4L37.307 44.28L36.907 44.15L36.517 43.99L36.127 43.82L35.747 43.62L35.387 43.41L35.037 43.19L34.697 42.94L34.367 42.69L34.047 42.41L33.747 42.12L33.457 41.82L33.187 41.51L32.927 41.18L32.687 40.84L32.457 40.48L32.247 40.12L32.057 39.75L31.887 39.36L31.727 38.97L31.587 38.56L31.467 38.15L31.377 37.73L31.297 37.31L31.237 36.87L31.207 36.43L31.197 35.99V35.99ZM33.207 13.87V35.99H31.197V13.87H33.207ZM39.897 5.17999V7.17999L39.547 7.18999L39.207 7.20999L38.877 7.25999L38.557 7.31L38.227 7.38999L37.917 7.48L37.607 7.57999L37.297 7.70999L37.007 7.84L36.717 7.99L36.437 8.14999L36.167 8.31999L35.907 8.50999L35.647 8.70999L35.407 8.91999L35.177 9.13999L34.957 9.38L34.737 9.62L34.537 9.87L34.357 10.13L34.177 10.41L34.017 10.69L33.867 10.98L33.737 11.27L33.617 11.58L33.507 11.89L33.417 12.2L33.347 12.53L33.287 12.85L33.247 13.19L33.217 13.53L33.207 13.87H31.197L31.207 13.42L31.237 12.99L31.297 12.55L31.377 12.12L31.467 11.7L31.587 11.29L31.727 10.89L31.887 10.49L32.057 10.11L32.247 9.73L32.457 9.37L32.687 9.02L32.927 8.67999L33.187 8.34999L33.457 8.02999L33.747 7.73L34.047 7.43999L34.367 7.16999L34.697 6.91L35.037 6.66999L35.387 6.43999L35.747 6.23L36.127 6.03999L36.507 5.87L36.907 5.70999L37.307 5.56999L37.727 5.45L38.147 5.35999L38.577 5.27999L39.007 5.21999L39.447 5.18999L39.897 5.17999Z" fill="black"/>
<defs>
<linearGradient id="paint0_linear_517_49" x1="89.807" y1="22.07" x2="99.597" y2="2.85002" gradientUnits="userSpaceOnUse">
<stop stop-color="#359C02"/>
<stop offset="1" stop-color="#550F81"/>
</linearGradient>
<linearGradient id="paint1_linear_517_49" x1="93.6569" y1="29.63" x2="98.9269" y2="1.45002" gradientUnits="userSpaceOnUse">
<stop stop-color="#359C02"/>
<stop offset="1" stop-color="#550D82"/>
</linearGradient>
<linearGradient id="paint2_linear_517_49" x1="28.5569" y1="31.03" x2="10.4569" y2="7.30001" gradientUnits="userSpaceOnUse">
<stop stop-color="#54137C"/>
<stop offset="1" stop-color="#359C02"/>
</linearGradient>
<linearGradient id="paint3_linear_517_49" x1="26.9769" y1="24.2" x2="15.1669" y2="4.31003" gradientUnits="userSpaceOnUse">
<stop stop-color="#550D82"/>
<stop offset="1" stop-color="#398D10"/>
</linearGradient>
<linearGradient id="paint4_linear_517_49" x1="11.9569" y1="23.67" x2="14.8069" y2="1.48998" gradientUnits="userSpaceOnUse">
<stop stop-color="#51226F"/>
<stop offset="1" stop-color="#359C02"/>
</linearGradient>
<linearGradient id="paint5_linear_517_49" x1="119.407" y1="7.58002" x2="90.407" y2="24.58" gradientUnits="userSpaceOnUse">
<stop stop-color="#7A2CAB"/>
<stop offset="1" stop-color="#00B006"/>
</linearGradient>
</defs>
</svg>
