<svg width="17" height="17" viewBox="0 0 17 17" fill="none" xmlns="http://www.w3.org/2000/svg">
<path fill-rule="evenodd" clip-rule="evenodd" d="M0.927246 9.4566V7.96725C0.927246 7.7579 1.1007 7.58445 1.31005 7.58445H2.50631C2.67379 6.68127 3.02668 5.84389 3.52911 5.12015L2.67977 4.2708C2.53621 4.12126 2.53621 3.88201 2.67977 3.73248L3.73247 2.67977C3.882 2.53024 4.12126 2.53024 4.2708 2.67977L5.12014 3.52912C5.84986 3.02669 6.68725 2.66781 7.59042 2.50631V1.30407C7.59042 1.09473 7.75789 0.927246 7.96724 0.927246H9.45659C9.66593 0.927246 9.83939 1.09473 9.83939 1.30407V2.50631C10.7426 2.66781 11.58 3.02669 12.3037 3.52912L13.153 2.67977C13.3026 2.53024 13.5418 2.53024 13.6914 2.67977L14.7441 3.73248C14.8936 3.88201 14.8936 4.12126 14.7441 4.2708L13.8947 5.12015C14.3971 5.84389 14.756 6.68127 14.9175 7.58445H16.1198C16.3291 7.58445 16.4966 7.7579 16.4966 7.96725V9.4566C16.4966 9.66594 16.3291 9.83341 16.1198 9.83341H14.9175C14.756 10.7426 14.3971 11.58 13.8947 12.3037L14.7441 13.153C14.8936 13.3026 14.8936 13.5418 14.7441 13.6914L13.6914 14.7441C13.5418 14.8876 13.3026 14.8876 13.153 14.7441L12.3037 13.8947C11.58 14.3972 10.7426 14.756 9.83939 14.9175V16.1138C9.83939 16.3231 9.66593 16.4966 9.45659 16.4966H7.96724C7.75789 16.4966 7.59042 16.3231 7.59042 16.1138V14.9175C6.68725 14.756 5.84986 14.3972 5.12014 13.8947L4.2708 14.7441C4.12126 14.8876 3.882 14.8876 3.73247 14.7441L2.67977 13.6914C2.53621 13.5418 2.53621 13.3026 2.67977 13.153L3.52911 12.3037C3.02668 11.58 2.67379 10.7426 2.50631 9.83341H1.31005C1.1007 9.83341 0.927246 9.66594 0.927246 9.4566ZM8.7149 7.45883C9.40275 7.45883 9.96499 8.02108 9.96499 8.70893C9.96499 9.40277 9.40275 9.965 8.7149 9.965C8.02107 9.965 7.45883 9.40277 7.45883 8.70893C7.45883 8.02108 8.02107 7.45883 8.7149 7.45883ZM8.7149 5.33548C10.5811 5.33548 12.0884 6.84875 12.0884 8.70893C12.0884 10.5751 10.5811 12.0884 8.7149 12.0884C6.84874 12.0884 5.33547 10.5751 5.33547 8.70893C5.33547 6.84875 6.84874 5.33548 8.7149 5.33548Z" fill="white"/>
<path d="M1.14256 7.96724V9.45659H0.711914V7.96724H1.14256ZM1.31004 7.37509V7.79977H1.29808H1.28611H1.28014L1.27415 7.80575H1.26219H1.25621L1.25023 7.81173H1.24425L1.23826 7.81771H1.23228L1.22032 7.82369L1.21434 7.82968L1.20835 7.83565H1.20238L1.1964 7.84163L1.19041 7.84762L1.18443 7.85958H1.17846L1.17247 7.86556V7.87753L1.16649 7.88351L1.16051 7.88948L1.15453 7.89547V7.90145L1.14855 7.90743V7.91939V7.92537L1.14256 7.93734V7.94332V7.9493V7.96127V7.96724H0.711914L0.717892 7.93734V7.90743L0.72387 7.87753L0.729857 7.84762L0.735835 7.82369L0.741813 7.7878L0.753778 7.76388L0.759756 7.73995L0.771722 7.71004L0.789665 7.68014L0.80163 7.65621L0.813595 7.63827L0.831538 7.61435L0.849482 7.59042L0.867425 7.5665L0.891346 7.54855L0.909289 7.53061L0.93322 7.50668L0.957141 7.48874L0.975084 7.47677L0.999014 7.45883L1.02294 7.44687L1.04687 7.43491L1.07677 7.41696L1.10667 7.41098L1.1306 7.39902L1.16051 7.39303L1.19041 7.38706L1.22032 7.38108L1.25023 7.37509H1.27415H1.31004V7.37509ZM2.50631 7.79977H1.31004V7.37509H2.50631L2.71565 7.6263L2.50631 7.79977V7.79977ZM2.71565 7.6263L2.68574 7.79977H2.50631L2.71565 7.6263V7.6263ZM3.37957 5.26968L3.68462 4.97061L3.70855 5.23977L3.66069 5.30556L3.61883 5.37734L3.57098 5.44313L3.52911 5.50893L3.48724 5.5807L3.44537 5.64649L3.40948 5.71828L3.36761 5.79005L3.33172 5.85584L3.28986 5.92762L3.25995 5.9994L3.22406 6.07117L3.18818 6.14893L3.15228 6.2207L3.12238 6.29248L3.08649 6.37024L3.05659 6.44201L3.02668 6.51977L2.99677 6.59753L2.97285 6.6693L2.94294 6.74706L2.91901 6.82481L2.89509 6.90257L2.87117 6.98033L2.84724 7.06407L2.82332 7.14182L2.80537 7.21958L2.78742 7.30332L2.76948 7.38108L2.75153 7.46482L2.73359 7.54257L2.71565 7.6263L2.29696 7.54855L2.3149 7.46482L2.33284 7.37509L2.35079 7.28538L2.36873 7.20164L2.39266 7.1179L2.41658 7.02817L2.43452 6.94444L2.46443 6.8607L2.48835 6.77696L2.51228 6.69322L2.54219 6.60948L2.5721 6.53173L2.602 6.448L2.63191 6.36425L2.66182 6.2865L2.6977 6.20276L2.72761 6.125L2.7635 6.04724L2.79938 5.96949L2.83527 5.89173L2.87714 5.81397L2.91303 5.73622L2.9549 5.65846L2.99677 5.5807L3.03864 5.50893L3.08051 5.43117L3.12238 5.35939L3.17023 5.28762L3.2121 5.20986L3.25995 5.13809L3.3078 5.07229L3.35565 5.00051L3.37957 5.26968V5.26968ZM3.68462 4.97061L3.81023 5.09621L3.70855 5.23977L3.68462 4.97061V4.97061ZM2.83527 4.12126L3.68462 4.97061L3.37957 5.26968L2.53023 4.42032L2.83527 4.12126ZM2.53023 3.58294L2.83527 3.88201L2.82929 3.88799L2.82332 3.89397L2.81733 3.90594L2.81135 3.91192L2.80537 3.9179V3.92388L2.79938 3.92986L2.79341 3.94183V3.9478L2.78742 3.95977V3.97173V3.97771V3.98369V3.99566V4.00163V4.00762V4.01958V4.02556V4.03154V4.04351L2.79341 4.05547V4.06743L2.79938 4.07342L2.80537 4.08537L2.81135 4.09136L2.81733 4.09734L2.82332 4.1093L2.82929 4.11528L2.83527 4.12126L2.53023 4.42032L2.51228 4.40238L2.48835 4.37846L2.4764 4.35454L2.45845 4.33061L2.44051 4.3007L2.42257 4.27678L2.4106 4.25285L2.40462 4.22295L2.39266 4.19902L2.3807 4.16911L2.37472 4.13921L2.36873 4.11528L2.36275 4.08537V4.06145L2.35677 4.03154V4.00163V3.97173L2.36275 3.94183V3.9179L2.36873 3.88799L2.37472 3.86407L2.3807 3.83416L2.39266 3.80425L2.40462 3.78033L2.4106 3.75042L2.42257 3.7265L2.44051 3.70257L2.45845 3.67266L2.4764 3.64874L2.48835 3.62482L2.51228 3.60687L2.53023 3.58294V3.58294ZM3.88799 2.8293L2.83527 3.88201L2.53023 3.58294L3.58293 2.53024L3.88799 2.8293ZM4.42032 2.53024L4.12126 2.8293L4.11527 2.82332H4.10929L4.10331 2.81136H4.09733L4.09135 2.80537H4.08537L4.07341 2.79939L4.06743 2.79342H4.06144L4.04948 2.78743H4.0435H4.03752L4.02555 2.78145H4.01359H4.00163H3.99565H3.98967H3.98368L3.97173 2.78743H3.95976H3.95378L3.94779 2.79342H3.93584L3.92985 2.79939L3.9179 2.80537L3.91191 2.81136H3.90593L3.89994 2.81734L3.89397 2.82332L3.88799 2.8293L3.58293 2.53024L3.60687 2.50631L3.62481 2.48836L3.64873 2.47042L3.67864 2.45248L3.70257 2.44051L3.72649 2.42856L3.7564 2.41061L3.78631 2.39865L3.81023 2.39266L3.83415 2.3807L3.86406 2.37472L3.88799 2.36874L3.9179 2.36276L3.94779 2.35677H3.9777H4.00761H4.03153H4.05546L4.09135 2.36276L4.11527 2.36874L4.14518 2.37472L4.17509 2.3807L4.19901 2.39266L4.22892 2.39865L4.25285 2.41061L4.27677 2.42257L4.30668 2.44051L4.3306 2.45248L4.35453 2.47042L4.37845 2.48836L4.40238 2.50631L4.42032 2.53024V2.53024ZM4.9706 3.67865L4.12126 2.8293L4.42032 2.53024L5.26967 3.37958L5.24574 3.70257L4.9706 3.67865ZM5.24574 3.70257L5.0962 3.80425L4.9706 3.67865L5.24574 3.70257V3.70257ZM7.37509 2.50631H7.79976L7.6263 2.71566L7.54257 2.7336L7.46481 2.74556L7.38107 2.76351L7.30331 2.78743L7.21957 2.80537L7.14182 2.82332L7.06406 2.84725L6.9863 2.87117L6.90855 2.8951L6.8248 2.91902L6.75303 2.94295L6.67527 2.96687L6.59752 2.99678L6.51976 3.02669L6.44799 3.05659L6.37023 3.08649L6.29845 3.1164L6.22069 3.15229L6.14892 3.18818L6.07714 3.21808L6.00537 3.25397L5.93359 3.28986L5.86182 3.33173L5.79004 3.36762L5.71827 3.4035L5.64649 3.44538L5.5807 3.48724L5.50892 3.52911L5.44312 3.57098L5.37733 3.61285L5.31153 3.6607L5.24574 3.70257L5.00051 3.35565L5.07228 3.30781L5.14406 3.25996L5.21584 3.21211L5.28761 3.16425L5.35938 3.12238L5.43117 3.08052L5.50892 3.03266L5.5807 2.99079L5.65845 2.9549L5.73621 2.91304L5.81397 2.87117L5.89172 2.83528L5.96948 2.79939L6.04724 2.76351L6.12499 2.72762L6.20873 2.69173L6.28649 2.66183L6.37023 2.62593L6.44799 2.59603L6.53172 2.56612L6.61546 2.54219L6.69322 2.51229L6.78294 2.48836L6.8607 2.45845L6.95041 2.43453L7.03415 2.41061L7.11789 2.39266L7.20163 2.36874L7.29135 2.3508L7.37509 2.33285L7.46481 2.31491L7.54854 2.29697L7.37509 2.50631V2.50631ZM7.79976 2.50631V2.68575L7.6263 2.71566L7.79976 2.50631V2.50631ZM7.79976 1.30407V2.50631H7.37509V1.30407H7.79976ZM7.96723 0.711914V1.14257H7.96126H7.94929H7.94331H7.93733L7.92537 1.14856H7.91938H7.91341L7.90144 1.15453H7.89546L7.88948 1.16051H7.8835L7.87752 1.1665L7.86555 1.17248L7.85958 1.17846V1.18444L7.84761 1.19042L7.84163 1.1964V1.20239L7.83565 1.20836L7.82967 1.21435L7.82369 1.22033V1.23229L7.8177 1.23827L7.81172 1.25024V1.25622L7.80575 1.26219V1.27416V1.28014V1.28612L7.79976 1.29809V1.30407H7.37509V1.27416V1.25024L7.38107 1.21435L7.38705 1.18444L7.39303 1.16051L7.39901 1.1306L7.41098 1.1007L7.42293 1.07677L7.4349 1.04687L7.44686 1.02294L7.46481 0.999023L7.47677 0.975093L7.49472 0.951172L7.51266 0.927242L7.5306 0.909298L7.54854 0.885377L7.56649 0.867434L7.59042 0.849491L7.61434 0.831538L7.63826 0.813595L7.66219 0.801639L7.68611 0.783696L7.71004 0.771731L7.73995 0.759766L7.76387 0.7478L7.79378 0.741822L7.82369 0.729857L7.84761 0.723879L7.87752 0.717901H7.90743L7.93733 0.711914H7.96723V0.711914ZM9.45658 1.14257H7.96723V0.711914H9.45658V1.14257ZM10.0487 1.30407H9.62406V1.29809V1.28612V1.28014L9.61808 1.27416V1.26219V1.25622L9.61209 1.25024V1.23827H9.60612V1.23229L9.60014 1.22033L9.59415 1.21435L9.58817 1.20836V1.20239L9.58219 1.1964L9.57621 1.19042L9.56424 1.18444V1.17846L9.55826 1.17248L9.55229 1.1665L9.54032 1.16051H9.53434L9.52836 1.15453H9.52238L9.51639 1.14856H9.50444H9.49845L9.49247 1.14257H9.4805H9.47453H9.46256H9.45658V0.711914H9.48649L9.51639 0.717901H9.5463L9.57621 0.723879L9.60612 0.729857L9.63602 0.741822L9.65995 0.7478L9.68388 0.759766L9.71378 0.771731L9.74368 0.783696L9.76761 0.801639L9.78556 0.813595L9.80948 0.831538L9.83341 0.849491L9.85733 0.867434L9.87527 0.885377L9.89322 0.909298L9.91715 0.927242L9.93509 0.951172L9.94705 0.975093L9.96499 0.999023L9.97695 1.02294L9.98892 1.04687L10.0069 1.07677L10.0128 1.1007L10.0248 1.1306L10.0308 1.16051L10.0368 1.18444L10.0427 1.21435L10.0487 1.25024V1.27416V1.30407V1.30407ZM9.62406 2.50631V1.30407H10.0487V2.50631L9.79751 2.71566L9.62406 2.50631V2.50631ZM9.79751 2.71566L9.62406 2.68575V2.50631L9.79751 2.71566V2.71566ZM12.1542 3.37958L12.4532 3.67865L12.1841 3.70257L12.1183 3.6607L12.0525 3.61285L11.9807 3.57098L11.9149 3.52911L11.8491 3.48724L11.7773 3.44538L11.7056 3.4035L11.6398 3.36762L11.568 3.33173L11.4962 3.28986L11.4244 3.25397L11.3527 3.21808L11.2809 3.18818L11.2031 3.15229L11.1314 3.1164L11.0536 3.08649L10.9818 3.05659L10.9041 3.02669L10.8263 2.99678L10.7545 2.96687L10.6768 2.94295L10.599 2.91902L10.5213 2.8951L10.4435 2.87117L10.3598 2.84725L10.282 2.82332L10.2042 2.80537L10.1205 2.78743L10.0427 2.76351L9.96499 2.74556L9.88125 2.7336L9.79751 2.71566L9.87527 2.29697L9.96499 2.31491L10.0487 2.33285L10.1385 2.3508L10.2222 2.36874L10.3059 2.39266L10.3956 2.41061L10.4794 2.43453L10.5631 2.45845L10.6469 2.48836L10.7306 2.51229L10.8143 2.54219L10.8981 2.56612L10.9758 2.59603L11.0596 2.62593L11.1373 2.66183L11.2211 2.69173L11.2988 2.72762L11.3766 2.76351L11.4603 2.79939L11.5381 2.83528L11.6158 2.87117L11.6876 2.91304L11.7654 2.9549L11.8431 2.99079L11.9149 3.03266L11.9927 3.08052L12.0644 3.12238L12.1422 3.16425L12.214 3.21211L12.2857 3.25996L12.3575 3.30781L12.4233 3.35565L12.1542 3.37958V3.37958ZM12.4532 3.67865L12.3276 3.80425L12.1841 3.70257L12.4532 3.67865V3.67865ZM13.3026 2.8293L12.4532 3.67865L12.1542 3.37958L13.0035 2.53024L13.3026 2.8293ZM13.8409 2.53024L13.5418 2.8293L13.5358 2.82332H13.5299L13.5179 2.81136H13.5119L13.5059 2.80537H13.4999L13.494 2.79939L13.482 2.79342H13.476L13.4641 2.78743H13.4521H13.4461L13.4401 2.78145H13.4282H13.4222H13.4162H13.4042L13.3983 2.78743H13.3923H13.3803L13.3743 2.79342H13.3684H13.3624L13.3504 2.79939L13.3444 2.80537H13.3385L13.3325 2.81136H13.3265L13.3145 2.82332H13.3085L13.3026 2.8293L13.0035 2.53024L13.0274 2.50631L13.0513 2.48836L13.0693 2.47042L13.0932 2.45248L13.1231 2.44051L13.147 2.42257L13.171 2.41061L13.1949 2.39865L13.2248 2.39266L13.2547 2.3807L13.2846 2.37472L13.3085 2.36874L13.3385 2.36276H13.3684L13.3923 2.35677H13.4222H13.4521L13.482 2.36276H13.5059L13.5358 2.36874L13.5598 2.37472L13.5897 2.3807L13.6196 2.39266L13.6495 2.39865L13.6734 2.41061L13.6973 2.42257L13.7213 2.44051L13.7512 2.45248L13.7751 2.47042L13.799 2.48836L13.8229 2.50631L13.8409 2.53024V2.53024ZM14.5945 3.88201L13.5418 2.8293L13.8409 2.53024L14.8936 3.58294L14.5945 3.88201ZM14.8936 4.42032L14.5945 4.12126L14.6005 4.11528L14.6065 4.1093L14.6125 4.09734L14.6185 4.09136V4.08537H14.6244V4.07342L14.6304 4.06743V4.05547H14.6364V4.04351V4.03154L14.6424 4.02556V4.01958V4.00762V4.00163V3.99566V3.98369V3.97771L14.6364 3.97173V3.95977V3.95378L14.6304 3.9478V3.94183L14.6244 3.92986V3.92388L14.6185 3.9179V3.91192L14.6125 3.90594L14.6065 3.89397L14.6005 3.88799L14.5945 3.88201L14.8936 3.58294L14.9175 3.60687L14.9355 3.6308L14.9534 3.64874L14.9714 3.67266L14.9893 3.70257L15.0013 3.7265L15.0132 3.75042L15.0252 3.78033L15.0371 3.80425L15.0431 3.83416L15.0491 3.86407L15.0551 3.88799L15.0611 3.9179L15.0671 3.94183V3.97173V4.00163V4.03154V4.06145L15.0611 4.08537L15.0551 4.11528L15.0491 4.13921L15.0431 4.16911L15.0371 4.19902L15.0252 4.22295L15.0132 4.25285L15.0013 4.27678L14.9893 4.3007L14.9714 4.33061L14.9534 4.35454L14.9355 4.37846L14.9175 4.40238L14.8936 4.42032V4.42032ZM13.7452 4.97061L14.5945 4.12126L14.8936 4.42032L14.0442 5.26968L13.7213 5.23977L13.7452 4.97061ZM13.7213 5.23977L13.6196 5.09621L13.7452 4.97061L13.7213 5.23977V5.23977ZM14.9175 7.37509V7.79977L14.7082 7.6263L14.6962 7.54257L14.6783 7.46482L14.6603 7.38108L14.6424 7.30332L14.6185 7.21958L14.6005 7.14182L14.5766 7.06407L14.5586 6.98033L14.5347 6.90257L14.5048 6.82481L14.4809 6.74706L14.457 6.6693L14.427 6.59753L14.3971 6.51977L14.3672 6.44201L14.3373 6.37024L14.3074 6.29248L14.2715 6.2207L14.2416 6.14893L14.2057 6.07117L14.1699 5.9994L14.134 5.92762L14.0981 5.85584L14.0562 5.79005L14.0203 5.71828L13.9785 5.64649L13.9366 5.5807L13.8947 5.50893L13.8528 5.44313L13.811 5.37734L13.7631 5.30556L13.7213 5.23977L14.0682 5.00051L14.116 5.07229L14.1639 5.13809L14.2117 5.20986L14.2596 5.28762L14.3014 5.35939L14.3493 5.43117L14.3912 5.50893L14.433 5.5807L14.4749 5.65846L14.5108 5.73622L14.5527 5.81397L14.5885 5.89173L14.6244 5.96949L14.6603 6.04724L14.6962 6.125L14.7321 6.20276L14.762 6.2865L14.7979 6.36425L14.8278 6.448L14.8577 6.53173L14.8876 6.60948L14.9115 6.69322L14.9414 6.77696L14.9654 6.8607L14.9893 6.94444L15.0132 7.02817L15.0371 7.1179L15.0551 7.20164L15.073 7.28538L15.091 7.37509L15.1089 7.46482L15.1269 7.54855L14.9175 7.37509V7.37509ZM14.9175 7.79977H14.7381L14.7082 7.6263L14.9175 7.79977V7.79977ZM16.1198 7.79977H14.9175V7.37509H16.1198V7.79977ZM16.7119 7.96724H16.2872V7.96127L16.2813 7.9493V7.94332V7.93734V7.92537L16.2753 7.91939V7.91341L16.2693 7.90145V7.89547L16.2633 7.88948V7.88351L16.2573 7.87753L16.2514 7.87154L16.2454 7.85958L16.2394 7.8536L16.2334 7.84762L16.2214 7.83565H16.2155L16.2095 7.82968L16.2035 7.82369L16.1975 7.81771H16.1856V7.81173H16.1736L16.1676 7.80575H16.1616H16.1497L16.1437 7.79977H16.1377H16.1257H16.1198V7.37509H16.1497H16.1736L16.2095 7.38108L16.2394 7.38706L16.2633 7.39303L16.2932 7.39902L16.3231 7.41098L16.3471 7.41696L16.377 7.43491L16.4009 7.44687L16.4248 7.45883L16.4487 7.47677L16.4727 7.49472L16.4966 7.50668L16.5145 7.52462L16.5385 7.54855L16.5564 7.57248L16.5743 7.59042L16.5923 7.60836L16.6102 7.63229L16.6222 7.65621L16.6401 7.68014L16.6521 7.71004L16.6641 7.73995L16.676 7.75789L16.682 7.7878L16.694 7.82369L16.6999 7.84762L16.7059 7.87753V7.90743L16.7119 7.93734V7.96724V7.96724ZM16.2872 9.45659V7.96724H16.7119V9.45659H16.2872ZM16.1198 10.0487V9.62407H16.1257L16.1377 9.61808H16.1437H16.1497H16.1616H16.1676L16.1736 9.6121L16.1856 9.60613L16.1975 9.60014H16.2035L16.2095 9.59416L16.2155 9.58818L16.2214 9.5822L16.2334 9.57622L16.2394 9.57023L16.2454 9.56425L16.2514 9.55229L16.2573 9.54631L16.2633 9.54033V9.53434L16.2693 9.52837V9.52239L16.2753 9.51042V9.50444L16.2813 9.49846V9.48649V9.48051V9.47454L16.2872 9.46257V9.45659H16.7119V9.48649L16.7059 9.5164V9.54631L16.6999 9.57622L16.694 9.60014L16.682 9.63005L16.676 9.66593L16.6641 9.68388L16.6521 9.70781L16.6401 9.73772L16.6222 9.76164L16.6102 9.79154L16.5923 9.80949L16.5743 9.83341L16.5564 9.85135L16.5385 9.87528L16.5145 9.89323L16.4966 9.91117L16.4727 9.92911L16.4487 9.94706L16.4248 9.965L16.4009 9.97696L16.377 9.98893L16.3471 10.0009L16.3231 10.0129L16.2932 10.0248L16.2633 10.0308L16.2394 10.0368L16.2095 10.0428L16.1736 10.0487H16.1497H16.1198V10.0487ZM14.9175 9.62407H16.1198V10.0487H14.9175L14.7082 9.79752L14.9175 9.62407V9.62407ZM14.7082 9.79752L14.7381 9.62407H14.9175L14.7082 9.79752V9.79752ZM14.0442 12.1542L13.7452 12.4532L13.7213 12.1841L13.7631 12.1183L13.811 12.0465L13.8528 11.9807L13.8947 11.9149L13.9366 11.8431L13.9785 11.7773L14.0203 11.7056L14.0562 11.6338L14.0981 11.568L14.134 11.4962L14.1699 11.4244L14.2057 11.3527L14.2416 11.2749L14.2715 11.2031L14.3074 11.1314L14.3373 11.0536L14.3672 10.9758L14.3971 10.9041L14.427 10.8263L14.457 10.7485L14.4809 10.6768L14.5048 10.599L14.5347 10.5213L14.5586 10.4375L14.5766 10.3598L14.6005 10.282L14.6185 10.2043L14.6424 10.1205L14.6603 10.0428L14.6783 9.95902L14.6962 9.88126L14.7082 9.79752L15.1269 9.87528L15.1089 9.95902L15.091 10.0487L15.073 10.1325L15.0551 10.2222L15.0371 10.3059L15.0132 10.3897L14.9893 10.4794L14.9654 10.5631L14.9414 10.6469L14.9115 10.7306L14.8876 10.8143L14.8577 10.8921L14.8278 10.9758L14.7979 11.0596L14.762 11.1373L14.7321 11.2211L14.6962 11.2988L14.6603 11.3766L14.6244 11.4543L14.5885 11.5321L14.5527 11.6099L14.5108 11.6876L14.4749 11.7654L14.433 11.8431L14.3912 11.9149L14.3493 11.9927L14.3014 12.0644L14.2596 12.1362L14.2117 12.214L14.1639 12.2857L14.116 12.3515L14.0682 12.4233L14.0442 12.1542V12.1542ZM13.7452 12.4532L13.6196 12.3276L13.7213 12.1841L13.7452 12.4532V12.4532ZM14.5945 13.3026L13.7452 12.4532L14.0442 12.1542L14.8936 13.0035L14.5945 13.3026ZM14.8936 13.8409L14.5945 13.5418L14.6005 13.5358L14.6065 13.5299L14.6125 13.5179L14.6185 13.5119V13.5059L14.6244 13.5V13.494L14.6304 13.482V13.476L14.6364 13.47V13.4641V13.4521L14.6424 13.4461V13.4401V13.4282V13.4222V13.4162V13.4043V13.3983L14.6364 13.3923V13.3803V13.3684L14.6304 13.3624L14.6244 13.3504V13.3385H14.6185V13.3325L14.6125 13.3265L14.6065 13.3145L14.6005 13.3085L14.5945 13.3026L14.8936 13.0035L14.9175 13.0214L14.9355 13.0454L14.9534 13.0693L14.9714 13.0932L14.9893 13.1172L15.0013 13.1471L15.0132 13.171L15.0252 13.1949L15.0371 13.2248L15.0431 13.2547L15.0491 13.2846L15.0551 13.3085L15.0611 13.3385L15.0671 13.3624V13.3923V13.4222V13.4521V13.476L15.0611 13.5059L15.0551 13.5358L15.0491 13.5598L15.0431 13.5897L15.0371 13.6196L15.0252 13.6435L15.0132 13.6674L15.0013 13.6973L14.9893 13.7213L14.9714 13.7512L14.9534 13.7751L14.9355 13.793L14.9175 13.817L14.8936 13.8409V13.8409ZM13.5418 14.5945L14.5945 13.5418L14.8936 13.8409L13.8409 14.8936L13.5418 14.5945ZM13.0035 14.8936L13.3026 14.5945H13.3085L13.3205 14.6065H13.3265V14.6125L13.3385 14.6185H13.3444L13.3504 14.6244H13.3564L13.3684 14.6304H13.3743L13.3863 14.6364H13.3923H13.3983L13.4042 14.6424H13.4162H13.4222H13.4282H13.4401L13.4461 14.6364H13.4521H13.4641L13.476 14.6304H13.482L13.494 14.6244L13.4999 14.6185H13.5059L13.5119 14.6125L13.5179 14.6065L13.5299 14.6005H13.5358L13.5418 14.5945L13.8409 14.8936L13.8229 14.9115L13.799 14.9355L13.7751 14.9534L13.7512 14.9714L13.7213 14.9833L13.6973 15.0013L13.6734 15.0132L13.6495 15.0252L13.6196 15.0312L13.5897 15.0431L13.5598 15.0491L13.5358 15.0551L13.5059 15.0611H13.482L13.4521 15.0671H13.4222H13.3923L13.3684 15.0611H13.3385L13.3085 15.0551L13.2786 15.0491L13.2547 15.0431L13.2248 15.0312L13.2009 15.0252L13.171 15.0132L13.147 15.0013L13.1231 14.9833L13.0992 14.9714L13.0693 14.9534L13.0454 14.9295L13.0274 14.9115L13.0035 14.8936V14.8936ZM12.4532 13.7452L13.3026 14.5945L13.0035 14.8936L12.1542 14.0443L12.1841 13.7153L12.4532 13.7452ZM12.1841 13.7153L12.3276 13.6196L12.4532 13.7452L12.1841 13.7153V13.7153ZM10.0487 14.9175H9.62406L9.79751 14.7082L9.88125 14.6902L9.96499 14.6783L10.0427 14.6543L10.1205 14.6364L10.2042 14.6185L10.282 14.6005L10.3598 14.5766L10.4435 14.5527L10.5213 14.5287L10.599 14.5048L10.6768 14.4809L10.7545 14.451L10.8263 14.4271L10.9041 14.3972L10.9818 14.3672L11.0536 14.3373L11.1314 14.3014L11.2031 14.2715L11.2809 14.2357L11.3527 14.2057L11.4244 14.1699L11.4962 14.134L11.568 14.0921L11.6398 14.0562L11.7056 14.0143L11.7773 13.9785L11.8491 13.9366L11.9149 13.8947L11.9807 13.8528L12.0525 13.805L12.1183 13.7631L12.1841 13.7153L12.4233 14.0682L12.3575 14.116L12.2857 14.1639L12.214 14.2117L12.1422 14.2596L12.0644 14.3014L11.9927 14.3433L11.9149 14.3852L11.8431 14.4271L11.7654 14.4689L11.6876 14.5108L11.6158 14.5467L11.5381 14.5885L11.4603 14.6244L11.3766 14.6603L11.2988 14.6962L11.2211 14.7321L11.1373 14.762L11.0596 14.7919L10.9758 14.8278L10.8981 14.8517L10.8143 14.8816L10.7306 14.9115L10.6469 14.9355L10.5631 14.9654L10.4794 14.9893L10.3956 15.0132L10.3059 15.0312L10.2222 15.0551L10.1385 15.073L10.0487 15.091L9.96499 15.1089L9.87527 15.1269L10.0487 14.9175V14.9175ZM9.62406 14.9175V14.7381L9.79751 14.7082L9.62406 14.9175V14.9175ZM9.62406 16.1138V14.9175H10.0487V16.1138H9.62406ZM9.45658 16.7119V16.2813H9.46256H9.47453H9.4805H9.49247L9.49845 16.2753H9.50444H9.51041L9.52238 16.2693H9.52836L9.53434 16.2633L9.54032 16.2573H9.5463L9.55229 16.2514L9.56424 16.2454L9.57023 16.2394L9.57621 16.2334L9.58219 16.2274L9.58817 16.2215L9.59415 16.2155V16.2095L9.60014 16.2035L9.60612 16.1975V16.1856L9.61209 16.1796V16.1736L9.61808 16.1676V16.1616V16.1497L9.62406 16.1437V16.1377V16.1257V16.1138H10.0487V16.1497V16.1736L10.0427 16.2035L10.0368 16.2334L10.0308 16.2633L10.0248 16.2932L10.0128 16.3231L10.0069 16.3471L9.98892 16.377L9.97695 16.4009L9.96499 16.4248L9.94705 16.4487L9.9291 16.4727L9.91715 16.4906L9.8992 16.5145L9.87527 16.5385L9.85135 16.5564L9.83341 16.5743L9.81546 16.5923L9.79154 16.6043L9.76761 16.6222L9.74368 16.6401L9.71378 16.6521L9.68388 16.6641L9.66592 16.67L9.63602 16.682L9.60612 16.694L9.57621 16.7L9.5463 16.7059H9.51639H9.48649L9.45658 16.7119V16.7119ZM7.96723 16.2813H9.45658V16.7119H7.96723V16.2813ZM7.37509 16.1138H7.79976V16.1257L7.80575 16.1377V16.1437V16.1497V16.1616L7.81172 16.1676V16.1736L7.8177 16.1796V16.1856L7.82369 16.1975V16.2035L7.82967 16.2095L7.83565 16.2155L7.84163 16.2215L7.84761 16.2274V16.2334L7.85359 16.2394L7.85958 16.2454L7.87153 16.2514L7.87752 16.2573H7.8835L7.88948 16.2633L7.89546 16.2693H7.90144L7.91341 16.2753H7.91938H7.92537L7.93733 16.2813H7.94331H7.94929H7.96126H7.96723V16.7119L7.93733 16.7059H7.90743H7.87752L7.84761 16.7L7.82369 16.694L7.79378 16.682L7.75789 16.67L7.73995 16.6641L7.71602 16.6521L7.68611 16.6401L7.66219 16.6222L7.63228 16.6043L7.61434 16.5923L7.59042 16.5743L7.57247 16.5564L7.54854 16.5385L7.5306 16.5145L7.51266 16.4906L7.49472 16.4727L7.47677 16.4487L7.45883 16.4248L7.44686 16.4009L7.4349 16.377L7.42293 16.3471L7.41098 16.3231L7.39901 16.2932L7.39303 16.2633L7.38705 16.2334L7.38107 16.2035L7.37509 16.1736V16.1497V16.1138V16.1138ZM7.79976 14.9175V16.1138H7.37509V14.9175L7.6263 14.7082L7.79976 14.9175V14.9175ZM7.6263 14.7082L7.79976 14.7381V14.9175L7.6263 14.7082V14.7082ZM5.26967 14.0443L4.9706 13.7452L5.24574 13.7213L5.31153 13.7631L5.37733 13.811L5.44312 13.8528L5.50892 13.8947L5.5807 13.9366L5.64649 13.9785L5.71827 14.0143L5.79004 14.0562L5.86182 14.0921L5.93359 14.134L6.00537 14.1699L6.07714 14.2057L6.14892 14.2357L6.22069 14.2715L6.29845 14.3014L6.37023 14.3373L6.44799 14.3672L6.51976 14.3972L6.59752 14.4271L6.67527 14.451L6.75303 14.4809L6.8248 14.5048L6.90855 14.5287L6.9863 14.5527L7.06406 14.5766L7.14182 14.6005L7.21957 14.6185L7.30331 14.6364L7.38107 14.6543L7.46481 14.6783L7.54257 14.6902L7.6263 14.7082L7.54854 15.1269L7.46481 15.1089L7.37509 15.091L7.29135 15.073L7.20163 15.0551L7.11789 15.0312L7.03415 15.0132L6.95041 14.9893L6.8607 14.9654L6.77696 14.9355L6.69322 14.9115L6.61546 14.8816L6.53172 14.8517L6.44799 14.8278L6.37023 14.7919L6.28649 14.762L6.20873 14.7321L6.12499 14.6962L6.04724 14.6603L5.96948 14.6244L5.89172 14.5885L5.81397 14.5527L5.73621 14.5108L5.65845 14.4689L5.5807 14.4271L5.50892 14.3852L5.43714 14.3433L5.35938 14.3014L5.28761 14.2596L5.21584 14.2117L5.14406 14.1639L5.07228 14.116L5.00051 14.0682L5.26967 14.0443V14.0443ZM4.9706 13.7452L5.0962 13.6196L5.24574 13.7213L4.9706 13.7452V13.7452ZM4.12126 14.5945L4.9706 13.7452L5.26967 14.0443L4.42032 14.8936L4.12126 14.5945ZM3.58293 14.8936L3.88799 14.5945L3.89397 14.6005H3.89994L3.90593 14.6065L3.91191 14.6125L3.9179 14.6185H3.92387L3.92985 14.6244L3.94182 14.6304H3.94779H3.95378L3.95976 14.6364H3.97173H3.9777L3.98967 14.6424H3.99565H4.00163H4.00761H4.01958L4.03153 14.6364H4.03752H4.0435L4.05546 14.6304H4.06144H4.06743L4.07341 14.6244L4.08537 14.6185H4.09135L4.09733 14.6125L4.10331 14.6065L4.10929 14.6005H4.11527L4.12126 14.5945L4.42032 14.8936L4.40238 14.9115L4.37845 14.9355L4.35453 14.9534L4.3306 14.9714L4.30668 14.9833L4.27677 15.0013L4.25285 15.0132L4.22892 15.0252L4.19901 15.0312L4.16911 15.0431L4.14518 15.0491L4.11527 15.0551L4.08537 15.0611H4.06144L4.03153 15.0671H4.00163H3.97173L3.94779 15.0611H3.9179L3.88799 15.0551L3.86406 15.0491L3.84014 15.0431L3.81023 15.0312L3.78032 15.0252L3.7564 15.0132L3.72649 15.0013L3.70257 14.9833L3.67864 14.9714L3.64873 14.9534L3.63079 14.9355L3.60687 14.9115L3.58293 14.8936V14.8936ZM2.83527 13.5418L3.88799 14.5945L3.58293 14.8936L2.53023 13.8409L2.83527 13.5418ZM2.53023 13.0035L2.83527 13.3026L2.82929 13.3085L2.82332 13.3145L2.81733 13.3265L2.81135 13.3325L2.80537 13.3385L2.79938 13.3504L2.79341 13.3624V13.3684L2.78742 13.3803V13.3923V13.3983V13.4043V13.4162V13.4222V13.4282V13.4401V13.4461V13.4521V13.4641L2.79341 13.47V13.476V13.482L2.79938 13.494L2.80537 13.5V13.5059L2.81135 13.5119L2.81733 13.5179L2.82332 13.5299L2.82929 13.5358L2.83527 13.5418L2.53023 13.8409L2.51228 13.817L2.48835 13.793L2.4764 13.7751L2.45845 13.7512L2.44051 13.7213L2.42257 13.6973L2.4106 13.6674L2.40462 13.6435L2.39266 13.6196L2.3807 13.5897L2.37472 13.5598L2.36873 13.5358L2.36275 13.5059V13.476L2.35677 13.4521V13.4222V13.3923L2.36275 13.3624V13.3385L2.36873 13.3085L2.37472 13.2846L2.3807 13.2547L2.39266 13.2248L2.40462 13.1949L2.4106 13.171L2.42257 13.1471L2.44051 13.1172L2.45845 13.0932L2.4764 13.0693L2.48835 13.0454L2.51228 13.0214L2.53023 13.0035V13.0035ZM3.68462 12.4532L2.83527 13.3026L2.53023 13.0035L3.37957 12.1542L3.70855 12.1841L3.68462 12.4532V12.4532ZM3.70855 12.1841L3.81023 12.3276L3.68462 12.4532L3.70855 12.1841V12.1841ZM2.50631 10.0487V9.62407L2.71565 9.79752L2.73359 9.88126L2.75153 9.95902L2.76948 10.0428L2.78742 10.1205L2.80537 10.2043L2.82332 10.282L2.84724 10.3598L2.87117 10.4375L2.89509 10.5213L2.91901 10.599L2.94294 10.6768L2.97285 10.7485L2.99677 10.8263L3.02668 10.9041L3.05659 10.9758L3.08649 11.0536L3.12238 11.1314L3.15228 11.2031L3.18818 11.2749L3.22406 11.3527L3.25397 11.4244L3.28986 11.4962L3.33172 11.568L3.36761 11.6338L3.40948 11.7056L3.44537 11.7773L3.48724 11.8431L3.52911 11.9149L3.57098 11.9807L3.61883 12.0465L3.66069 12.1183L3.70855 12.1841L3.35565 12.4233L3.3078 12.3515L3.25995 12.2857L3.2121 12.214L3.17023 12.1362L3.12238 12.0644L3.08051 11.9927L3.03864 11.9149L2.99677 11.8431L2.9549 11.7654L2.91303 11.6876L2.87714 11.6099L2.83527 11.5321L2.79938 11.4543L2.7635 11.3766L2.72761 11.2988L2.6977 11.2211L2.66182 11.1373L2.63191 11.0596L2.602 10.9758L2.5721 10.8921L2.54219 10.8143L2.51228 10.7306L2.48835 10.6469L2.46443 10.5631L2.43452 10.4794L2.41658 10.3897L2.39266 10.3059L2.36873 10.2222L2.35079 10.1325L2.33284 10.0487L2.3149 9.95902L2.29696 9.87528L2.50631 10.0487V10.0487ZM2.50631 9.62407H2.68574L2.71565 9.79752L2.50631 9.62407V9.62407ZM1.31004 9.62407H2.50631V10.0487H1.31004V9.62407ZM0.711914 9.45659H1.14256V9.46257V9.47454V9.48051V9.48649L1.14855 9.49846V9.50444V9.51042L1.15453 9.52239V9.52837L1.16051 9.53434L1.16649 9.54033L1.17247 9.54631V9.55827L1.17846 9.56425H1.18443L1.19041 9.57622L1.1964 9.5822H1.20238L1.20835 9.58818L1.21434 9.59416L1.22032 9.60014L1.23228 9.60613H1.23826H1.24425L1.25023 9.6121L1.25621 9.61808H1.26219H1.27415H1.28014H1.28611L1.29808 9.62407H1.31004V10.0487H1.27415H1.25023L1.22032 10.0428L1.19041 10.0368L1.16051 10.0308L1.1306 10.0248L1.10667 10.0129L1.07677 10.0009L1.04687 9.98893L1.02294 9.97696L0.999014 9.965L0.975084 9.94706L0.957141 9.92911L0.93322 9.91117L0.909289 9.89323L0.891346 9.87528L0.867425 9.85734L0.849482 9.83341L0.831538 9.80949L0.813595 9.78556L0.80163 9.76164L0.789665 9.73772L0.771722 9.71378L0.759756 9.68388L0.753778 9.65996L0.741813 9.63005L0.735835 9.60014L0.729857 9.57622L0.72387 9.54631L0.717892 9.5164V9.48649L0.711914 9.45659V9.45659ZM10.1803 8.70893H9.75565V8.66108L9.74967 8.60724L9.74368 8.55341L9.73172 8.49958L9.71976 8.45173L9.7078 8.40388L9.68985 8.35603L9.67191 8.30817L9.65397 8.26033L9.63004 8.21846L9.60612 8.17061L9.57621 8.12874L9.5463 8.08687L9.51639 8.05098L9.48649 8.0151L9.45061 7.97322L9.41471 7.94332L9.37285 7.90743L9.33696 7.87753L9.29509 7.84762L9.25322 7.82369L9.21135 7.79379L9.1635 7.77584L9.11564 7.75192L9.06779 7.73397L9.01995 7.71603L8.9721 7.70406L8.92425 7.6921L8.87042 7.68014L8.82257 7.67416H8.76873H8.7149V7.2435L8.78668 7.24949H8.86443L8.93621 7.26144L9.00799 7.27341L9.07976 7.29135L9.15154 7.3093L9.21733 7.33323L9.28312 7.36314L9.34892 7.38706L9.41471 7.42294L9.47453 7.45883L9.53434 7.49472L9.58817 7.53659L9.64798 7.57846L9.70182 7.6263L9.74967 7.67416L9.79751 7.728L9.84537 7.77584L9.88724 7.83565L9.9291 7.88948L9.96499 7.9493L10.0009 8.0151L10.0368 8.0749L10.0667 8.1407L10.0906 8.20649L10.1145 8.27229L10.1325 8.34407L10.1504 8.41584L10.1624 8.48761L10.1743 8.56537L10.1803 8.63715V8.70893V8.70893ZM8.7149 10.1803V9.74967H8.76873H8.82257L8.87042 9.74369L8.92425 9.73173L8.9721 9.71976L9.01995 9.70781L9.06779 9.68986L9.11564 9.67192L9.1635 9.64799L9.21135 9.63005L9.25322 9.60014L9.29509 9.57622L9.33696 9.54631L9.37285 9.5164L9.41471 9.48051L9.45061 9.45061L9.48649 9.40874L9.51639 9.37285L9.5463 9.33696L9.57621 9.2951L9.60612 9.25322L9.63004 9.20537L9.65397 9.16351L9.67191 9.11565L9.68985 9.0678L9.7078 9.01995L9.71976 8.9721L9.73172 8.92426L9.74368 8.87042L9.74967 8.81659L9.75565 8.76276V8.70893H10.1803V8.78668L10.1743 8.85846L10.1624 8.93621L10.1504 9.00799L10.1325 9.07977L10.1145 9.14556L10.0906 9.21734L10.0667 9.28313L10.0368 9.34892L10.0009 9.40874L9.96499 9.47454L9.9291 9.53434L9.88724 9.58818L9.84537 9.64799L9.79751 9.69584L9.74967 9.74967L9.70182 9.79752L9.64798 9.84537L9.58817 9.88725L9.53434 9.92911L9.47453 9.965L9.41471 10.0009L9.34892 10.0368L9.28312 10.0607L9.21733 10.0906L9.15154 10.1145L9.07976 10.1325L9.00799 10.1504L8.93621 10.1624L8.86443 10.1684L8.78668 10.1743L8.7149 10.1803V10.1803ZM7.2435 8.70893H7.67416V8.76276L7.68013 8.81659L7.68611 8.87042L7.6921 8.92426L7.70406 8.9721L7.722 9.01995L7.73396 9.0678L7.75191 9.11565L7.77584 9.16351L7.79976 9.20537L7.82369 9.25322L7.84761 9.2951L7.87752 9.33696L7.90743 9.37285L7.94331 9.40874L7.9792 9.45061L8.01509 9.48051L8.05097 9.5164L8.09285 9.54631L8.12873 9.57622L8.17658 9.60014L8.21845 9.63005L8.26032 9.64799L8.30817 9.67192L8.35603 9.68986L8.40388 9.70781L8.45172 9.71976L8.50556 9.73173L8.55341 9.74369L8.60724 9.74967H8.66107H8.7149V10.1803L8.63715 10.1743L8.56537 10.1684L8.48761 10.1624L8.41583 10.1504L8.34406 10.1325L8.27827 10.1145L8.20649 10.0906L8.1407 10.0607L8.08088 10.0368L8.01509 10.0009L7.94929 9.965L7.89546 9.92911L7.83565 9.88725L7.78182 9.84537L7.72799 9.79752L7.67416 9.74967L7.6263 9.69584L7.57845 9.64799L7.53658 9.58818L7.49472 9.53434L7.45883 9.47454L7.42293 9.40874L7.39303 9.34892L7.36313 9.28313L7.33322 9.21734L7.3093 9.14556L7.29135 9.07977L7.2734 9.00799L7.26144 8.93621L7.25546 8.85846L7.24948 8.78668L7.2435 8.70893V8.70893ZM8.7149 7.2435V7.67416H8.66107H8.60724L8.55341 7.68014L8.50556 7.6921L8.45172 7.70406L8.40388 7.71603L8.35603 7.73397L8.30817 7.75192L8.26032 7.77584L8.21845 7.79379L8.17658 7.82369L8.12873 7.84762L8.09285 7.87753L8.05097 7.90743L8.01509 7.94332L7.9792 7.97322L7.94331 8.0151L7.90743 8.05098L7.87752 8.08687L7.84761 8.12874L7.82369 8.17061L7.79976 8.21846L7.77584 8.26033L7.75191 8.30817L7.73396 8.35603L7.722 8.40388L7.70406 8.45173L7.6921 8.49958L7.68611 8.55341L7.68013 8.60724L7.67416 8.66108V8.70893H7.2435L7.24948 8.63715L7.25546 8.56537L7.26144 8.48761L7.2734 8.41584L7.29135 8.34407L7.3093 8.27229L7.33322 8.20649L7.36313 8.1407L7.39303 8.0749L7.42293 8.0151L7.45883 7.9493L7.49472 7.88948L7.53658 7.83565L7.57845 7.77584L7.6263 7.728L7.67416 7.67416L7.72799 7.6263L7.78182 7.57846L7.83565 7.53659L7.89546 7.49472L7.94929 7.45883L8.01509 7.42294L8.08088 7.38706L8.1407 7.36314L8.20649 7.33323L8.27827 7.3093L8.34406 7.29135L8.41583 7.27341L8.48761 7.26144L8.56537 7.24949H8.63715L8.7149 7.2435V7.2435ZM12.3037 8.70893H11.879L11.873 8.54743L11.8611 8.38593L11.8431 8.23042L11.8132 8.0749L11.7773 7.91939L11.7355 7.76986L11.6876 7.6263L11.6278 7.48276L11.568 7.3392L11.4962 7.20164L11.4185 7.07005L11.3347 6.94444L11.245 6.81883L11.1553 6.69921L11.0536 6.58556L10.9519 6.47192L10.8383 6.37024L10.7246 6.26855L10.605 6.17883L10.4794 6.08911L10.3538 6.00538L10.2222 5.92762L10.0846 5.86182L9.94705 5.79603L9.8035 5.7422L9.65397 5.68837L9.50444 5.64649L9.34892 5.61061L9.1934 5.58669L9.03789 5.56276L8.8764 5.5508H8.7149V5.12014L8.90032 5.12612L9.07976 5.13809L9.2592 5.16201L9.43864 5.19192L9.61209 5.23378L9.77957 5.28163L9.94705 5.34145L10.1085 5.40127L10.27 5.47304L10.4256 5.55678L10.5751 5.64052L10.7186 5.73622L10.8622 5.8379L10.9998 5.93958L11.1254 6.05323L11.251 6.17285L11.3706 6.29846L11.4842 6.43004L11.5919 6.56163L11.6876 6.70519L11.7833 6.84874L11.8671 6.99827L11.9508 7.15379L12.0226 7.31528L12.0824 7.47677L12.1422 7.64426L12.19 7.81173L12.2319 7.99117L12.2618 8.16463L12.2857 8.34407L12.2977 8.52949L12.3037 8.70893V8.70893ZM8.7149 12.3037V11.873H8.8764L9.03789 11.8611L9.1934 11.8372L9.34892 11.8132L9.50444 11.7773L9.65397 11.7355L9.8035 11.6816L9.94705 11.6278L10.0846 11.562L10.2222 11.4962L10.3538 11.4185L10.4794 11.3347L10.605 11.245L10.7246 11.1553L10.8383 11.0536L10.9519 10.9519L11.0536 10.8383L11.1553 10.7246L11.245 10.605L11.3347 10.4794L11.4185 10.3538L11.4962 10.2222L11.568 10.0846L11.6278 9.94108L11.6876 9.79752L11.7355 9.65397L11.7773 9.50444L11.8132 9.34892L11.8431 9.19341L11.8611 9.03789L11.873 8.87641L11.879 8.70893H12.3037L12.2977 8.89435L12.2857 9.07977L12.2618 9.25921L12.2319 9.43266L12.19 9.60613L12.1422 9.77958L12.0824 9.94706L12.0226 10.1086L11.9508 10.2701L11.8671 10.4256L11.7833 10.5751L11.6876 10.7186L11.5919 10.8622L11.4842 10.9938L11.3706 11.1254L11.251 11.251L11.1254 11.3706L10.9998 11.4843L10.8622 11.5859L10.7186 11.6876L10.5751 11.7833L10.4256 11.8671L10.27 11.9508L10.1085 12.0166L9.94705 12.0824L9.77957 12.1422L9.61209 12.19L9.43864 12.2319L9.2592 12.2618L9.07976 12.2857L8.90032 12.2977L8.7149 12.3037V12.3037ZM5.12014 8.70893H5.55079V8.87641L5.56873 9.03789L5.58668 9.19341L5.61658 9.34892L5.64649 9.50444L5.69434 9.65397L5.74219 9.79752L5.79603 9.94108L5.86182 10.0846L5.93359 10.2222L6.00537 10.3538L6.0891 10.4794L6.17883 10.605L6.27452 10.7246L6.37023 10.8383L6.47789 10.9519L6.58555 11.0536L6.6992 11.1553L6.81882 11.245L6.94444 11.3347L7.07004 11.4185L7.20762 11.4962L7.3392 11.562L7.48275 11.6278L7.6263 11.6816L7.76985 11.7355L7.91938 11.7773L8.0749 11.8132L8.23041 11.8372L8.39191 11.8611L8.54742 11.873H8.7149V12.3037L8.52948 12.2977L8.34406 12.2857L8.16462 12.2618L7.99117 12.2319L7.8177 12.19L7.64425 12.1422L7.47677 12.0824L7.31527 12.0166L7.15976 11.9508L7.00424 11.8671L6.84873 11.7833L6.70518 11.6876L6.56761 11.5859L6.43004 11.4843L6.29845 11.3706L6.17284 11.251L6.05322 11.1254L5.93957 10.9938L5.83789 10.8622L5.73621 10.7186L5.64051 10.5751L5.55677 10.4256L5.47901 10.2701L5.40724 10.1086L5.34144 9.94706L5.28761 9.77958L5.23378 9.60613L5.1979 9.43266L5.162 9.25921L5.14406 9.07977L5.12611 8.89435L5.12014 8.70893V8.70893ZM8.7149 5.12014V5.5508H8.54742L8.39191 5.56276L8.23041 5.58669L8.0749 5.61061L7.91938 5.64649L7.76985 5.68837L7.6263 5.7422L7.48275 5.79603L7.3392 5.86182L7.20762 5.92762L7.07004 6.00538L6.94444 6.08911L6.81882 6.17883L6.6992 6.26855L6.58555 6.37024L6.47789 6.47192L6.37023 6.58556L6.27452 6.69921L6.17883 6.81883L6.0891 6.94444L6.00537 7.07005L5.93359 7.20164L5.86182 7.3392L5.79603 7.48276L5.74219 7.6263L5.69434 7.76986L5.64649 7.91939L5.61658 8.0749L5.58668 8.23042L5.56873 8.38593L5.55079 8.54743V8.70893H5.12014L5.12611 8.52949L5.14406 8.34407L5.162 8.16463L5.1979 7.99117L5.23378 7.81173L5.28761 7.64426L5.34144 7.47677L5.40724 7.31528L5.47901 7.15379L5.55677 6.99827L5.64051 6.84874L5.73621 6.70519L5.83789 6.56163L5.93957 6.43004L6.05322 6.29846L6.17284 6.17285L6.29845 6.05323L6.43004 5.93958L6.56761 5.8379L6.70518 5.73622L6.84873 5.64052L7.00424 5.55678L7.15976 5.47304L7.31527 5.40127L7.47677 5.34145L7.64425 5.28163L7.8177 5.23378L7.99117 5.19192L8.16462 5.16201L8.34406 5.13809L8.52948 5.12612L8.7149 5.12014V5.12014Z" fill="black"/>
</svg>
