<svg width="30" height="16" viewBox="0 0 30 16" fill="none" xmlns="http://www.w3.org/2000/svg">
<path d="M15.064 0.631927H4.63208L1.14404 7.59199L4.63208 14.5519H15.064L11.592 7.59199L15.064 0.631927Z" fill="white"/>
<path d="M4.63184 1.096L4.21582 0.423926L4.63184 0.167969H15.0638V1.096H4.63184ZM4.21582 0.423926L4.34385 0.167969H4.63184L4.21582 0.423926ZM1.55981 7.8H0.743799V7.38398L4.21582 0.423926L5.04785 0.839941L1.55981 7.8ZM0.743799 7.8L0.631836 7.59199L0.743799 7.38398V7.8ZM5.04785 14.3439L4.63184 15.016L4.21582 14.76L0.743799 7.8L1.55981 7.38398L5.04785 14.3439ZM4.63184 15.016H4.34385L4.21582 14.76L4.63184 15.016ZM15.0638 14.088L15.4798 14.3439L15.0638 15.016H4.63184V14.088H15.0638ZM15.4798 14.3439L15.8158 15.016H15.0638L15.4798 14.3439ZM11.1758 7.8V7.38398H12.0078L15.4798 14.3439L14.6479 14.76L11.1758 7.8ZM11.1758 7.8L11.0638 7.59199L11.1758 7.38398V7.8ZM14.6479 0.423926L15.0638 0.167969L15.4798 0.839941L12.0078 7.8L11.1758 7.38398L14.6479 0.423926ZM15.0638 0.167969H15.8158L15.4798 0.839941L15.0638 0.167969Z" fill="black"/>
<path d="M28.2799 0.631927H17.8319L14.3599 7.59199L17.8319 14.5519H28.2799L24.7919 7.59199L28.2799 0.631927Z" fill="white"/>
<path d="M17.832 1.096L17.416 0.423926L17.832 0.167969H28.28V1.096H17.832ZM17.416 0.423926L17.544 0.167969H17.832L17.416 0.423926ZM14.776 7.8H13.944V7.38398L17.416 0.423926L18.248 0.839941L14.776 7.8ZM13.944 7.8L13.832 7.59199L13.944 7.38398V7.8ZM18.248 14.3439L17.832 15.016L17.416 14.76L13.944 7.8L14.776 7.38398L18.248 14.3439ZM17.832 15.016H17.544L17.416 14.76L17.832 15.016ZM28.28 14.088L28.68 14.3439L28.28 15.016H17.832V14.088H28.28ZM28.68 14.3439L29.016 15.016H28.28L28.68 14.3439ZM24.376 7.8V7.38398H25.208L28.68 14.3439L27.864 14.76L24.376 7.8ZM24.376 7.8L24.28 7.59199L24.376 7.38398V7.8ZM27.864 0.423926L28.28 0.167969L28.68 0.839941L25.208 7.8L24.376 7.38398L27.864 0.423926ZM28.28 0.167969H29.016L28.68 0.839941L28.28 0.167969Z" fill="black"/>
</svg>
