<svg width="341" height="191" viewBox="0 0 341 191" fill="none" xmlns="http://www.w3.org/2000/svg">
<path fill-rule="evenodd" clip-rule="evenodd" d="M211.971 103.732C185.611 99.9218 190.701 136.022 202.091 152.462C215.821 172.292 249.771 181.702 260.161 151.812L263.871 152.912C254.911 174.592 238.991 176.572 226.471 173.742C213.311 170.762 201.471 160.962 194.911 146.402C185.081 124.612 186.931 96.6218 212.821 100.672L211.971 103.732V103.732Z" fill="black" stroke="black" stroke-miterlimit="22.9256"/>
<path fill-rule="evenodd" clip-rule="evenodd" d="M60.991 33.0818C67.021 -6.70825 143.881 -12.6683 156.911 88.3117C159.761 110.372 163.561 130.722 175.691 146.232C196.261 172.572 224.091 190.052 240.491 185.642C248.221 183.572 253.341 175.532 254.081 163.252L257.701 163.192C256.211 200.172 224.591 195.462 195.401 172.492C172.851 154.752 152.301 128.232 149.411 88.1917C148.471 75.1417 147.971 64.1717 144.501 54.8717C122.481 -4.04827 70.231 3.80175 65.321 33.0818H60.991V33.0818Z" fill="url(#paint0_linear_532_36)" stroke="black" stroke-miterlimit="22.9256"/>
<path fill-rule="evenodd" clip-rule="evenodd" d="M51.8411 33.2818C55.5311 9.46176 102.441 -15.3282 105.431 54.8918C106.331 75.8418 98.6611 197.222 162.561 174.112C172.771 170.422 179.931 164.392 186.891 155.122C207.761 127.312 214.841 79.5318 216.821 45.6218C219.811 -5.61824 264.491 -16.3082 267.371 32.4118H263.901C262.821 10.3118 249.651 -1.76824 236.081 8.72176C230.041 13.3818 223.891 22.5518 222.021 33.7718C216.391 67.5118 215.661 122.102 193.061 154.972C184.761 167.052 175.141 175.552 159.371 179.512C129.961 186.882 117.251 169.122 109.811 146.502C99.4311 114.982 102.001 72.5318 101.301 54.4918C100.381 30.5618 91.5511 16.6518 83.6111 13.8018C71.3611 9.42175 57.3511 25.6518 56.7611 33.1918L51.8411 33.2818V33.2818Z" fill="url(#paint1_linear_532_36)" stroke="black" stroke-miterlimit="22.9256"/>
<path fill-rule="evenodd" clip-rule="evenodd" d="M73.241 33.1918C69.411 3.19175 31.471 19.7218 16.931 37.1618C-0.589045 58.1918 -0.589043 98.1917 35.261 100.492L35.191 104.882C8.75096 101.652 1.75095 84.8418 1.05095 70.2918C0.320955 54.9818 7.45096 39.0717 21.391 27.4617C42.241 10.1117 73.431 3.63175 76.851 33.1918H73.241V33.1918Z" fill="#AF24D6" stroke="black" stroke-miterlimit="22.9256"/>
<path fill-rule="evenodd" clip-rule="evenodd" d="M265.711 162.762C267.501 178.362 299.621 175.842 319.671 161.782C336.551 149.952 346.081 129.982 315.101 99.1718L316.911 96.7618C390.781 162.322 261.911 199.912 262.421 162.862L265.711 162.762V162.762Z" fill="#388C10" stroke="black" stroke-width="0.9" stroke-miterlimit="22.9256"/>
<path fill-rule="evenodd" clip-rule="evenodd" d="M46.4509 148.192C47.2609 156.762 60.5708 163.112 75.5408 161.842C100.751 159.712 132.301 139.782 128.761 100.352C123.241 38.8818 198.441 -12.1382 204.151 51.8318H199.971C196.491 11.7718 164.731 24.3018 146.771 48.9918C136.921 62.5318 132.431 81.5118 134.251 96.5818C142.721 166.542 47.6808 181.912 42.8708 148.192H46.4509Z" fill="url(#paint2_linear_532_36)" stroke="black" stroke-width="2" stroke-miterlimit="22.9256"/>
<path d="M79.4109 33.1918H48.3909V46.1918H79.4109V33.1918Z" fill="#A200CF"/>
<path d="M59.5209 33.1918H48.3909V46.1918H59.5209V33.1918Z" fill="#CD2AFA"/>
<path d="M274.411 148.192H242.751V163.192H274.411V148.192Z" fill="#A200CF"/>
<path d="M274.411 148.192H259.411V163.192H274.411V148.192Z" fill="#590870"/>
<path d="M269.411 28.1918H261.031V46.1918H269.411V28.1918Z" fill="#A200CF"/>
<path d="M79.4109 33.1918H48.3909V46.1918H79.4109V33.1918Z" stroke="black" stroke-width="2.36" stroke-miterlimit="22.9256"/>
<path d="M274.411 148.192H242.751V163.192H274.411V148.192Z" stroke="black" stroke-width="2.36" stroke-miterlimit="22.9256"/>
<path d="M269.411 28.1918H261.031V46.1918H269.411V28.1918Z" stroke="black" stroke-width="2.36" stroke-miterlimit="22.9256"/>
<path d="M310.091 46.1918H33.7309C26.1204 46.1918 19.9509 51.8778 19.9509 58.8918V135.492C19.9509 142.506 26.1204 148.192 33.7309 148.192H310.091C317.701 148.192 323.871 142.506 323.871 135.492V58.8918C323.871 51.8778 317.701 46.1918 310.091 46.1918Z" fill="#A200CF"/>
<path fill-rule="evenodd" clip-rule="evenodd" d="M323.871 135.492C323.871 142.482 317.671 148.192 310.091 148.192H33.7309C26.1509 148.192 19.9509 142.482 19.9509 135.492H323.871V135.492Z" fill="#590870"/>
<path fill-rule="evenodd" clip-rule="evenodd" d="M33.7309 46.1918H310.091C317.671 46.1918 323.871 51.9018 323.871 58.8918H19.9509C19.9509 51.9018 26.1509 46.1918 33.7309 46.1918V46.1918Z" fill="#CD2AFA"/>
<path d="M289.901 53.6418H53.9309C47.4305 53.6418 42.1609 58.495 42.1609 64.4818V129.892C42.1609 135.879 47.4305 140.732 53.9309 140.732H289.901C296.401 140.732 301.671 135.879 301.671 129.892V64.4818C301.671 58.495 296.401 53.6418 289.901 53.6418Z" fill="#780099"/>
<path d="M310.091 46.1918H33.7309C26.1204 46.1918 19.9509 51.8778 19.9509 58.8918V135.492C19.9509 142.506 26.1204 148.192 33.7309 148.192H310.091C317.701 148.192 323.871 142.506 323.871 135.492V58.8918C323.871 51.8778 317.701 46.1918 310.091 46.1918Z" stroke="black" stroke-width="2.36" stroke-miterlimit="22.9256"/>
<path d="M253.451 131.152H283.571V148.192" stroke="black" stroke-width="3" stroke-miterlimit="22.9256"/>
<path d="M233.201 46.1918V83.1918L253.451 88.6218V148.192" stroke="black" stroke-width="3" stroke-miterlimit="22.9256"/>
<path fill-rule="evenodd" clip-rule="evenodd" d="M254.341 87.8518L233.861 82.3418V46.1918H232.211V81.9018L232.221 83.6418L252.631 89.0618V146.972H254.281L254.291 131.882H283.021V146.832H284.211V131.882V130.342H283.021H254.291L254.341 87.8518Z" fill="url(#paint3_linear_532_36)"/>
<path d="M178.641 46.1918V88.1918H197.671V148.192" stroke="black" stroke-width="3" stroke-miterlimit="22.9256"/>
<path fill-rule="evenodd" clip-rule="evenodd" d="M197.341 148.192H198.131V88.5818V87.7918H197.341H179.031V45.4918H178.241V88.5818H178.251H179.031H197.341V148.192Z" fill="url(#paint4_linear_532_36)"/>
<path d="M116.241 148.192V131.882H198.911" stroke="black" stroke-width="3" stroke-miterlimit="22.9256"/>
<path fill-rule="evenodd" clip-rule="evenodd" d="M197.671 132.392V131.602H116.631H115.841V132.392L115.871 148.172H116.661L116.631 132.392H197.671Z" fill="url(#paint5_linear_532_36)"/>
<path d="M107.251 46.1918V148.192" stroke="black" stroke-width="3" stroke-miterlimit="22.9256"/>
<path d="M108.151 46.1918H106.401V148.192H108.151V46.1918Z" fill="url(#paint6_linear_532_36)"/>
<path d="M42.1609 127.932H101.891L102.011 148.192" stroke="black" stroke-width="3" stroke-miterlimit="22.9256"/>
<path fill-rule="evenodd" clip-rule="evenodd" d="M42.1609 127.062H101.241H102.781V128.752L102.681 148.192H101.141L101.241 128.752H42.1609V127.062Z" fill="url(#paint7_linear_532_36)"/>
<defs>
<linearGradient id="paint0_linear_532_36" x1="132.921" y1="187.032" x2="185.771" y2="9.56175" gradientUnits="userSpaceOnUse">
<stop stop-color="#388C10"/>
<stop offset="1" stop-color="#521977"/>
</linearGradient>
<linearGradient id="paint1_linear_532_36" x1="265.961" y1="75.8418" x2="53.2611" y2="106.362" gradientUnits="userSpaceOnUse">
<stop stop-color="#521977"/>
<stop offset="1" stop-color="#3E7128"/>
</linearGradient>
<linearGradient id="paint2_linear_532_36" x1="115.271" y1="22.6518" x2="131.741" y2="165.002" gradientUnits="userSpaceOnUse">
<stop stop-color="#369607"/>
<stop offset="1" stop-color="#550D82"/>
</linearGradient>
<linearGradient id="paint3_linear_532_36" x1="274.261" y1="51.0218" x2="242.161" y2="142.142" gradientUnits="userSpaceOnUse">
<stop stop-color="#8821CC"/>
<stop offset="1" stop-color="#388C10"/>
</linearGradient>
<linearGradient id="paint4_linear_532_36" x1="162.381" y1="117.662" x2="214.001" y2="76.0218" gradientUnits="userSpaceOnUse">
<stop stop-color="#511D73"/>
<stop offset="1" stop-color="#388C10"/>
</linearGradient>
<linearGradient id="paint5_linear_532_36" x1="115.841" y1="139.892" x2="197.671" y2="139.892" gradientUnits="userSpaceOnUse">
<stop stop-color="#388B11"/>
<stop offset="1" stop-color="#8614D1"/>
</linearGradient>
<linearGradient id="paint6_linear_532_36" x1="104.421" y1="97.1418" x2="110.131" y2="97.2418" gradientUnits="userSpaceOnUse">
<stop stop-color="#7E16C4"/>
<stop offset="1" stop-color="#388C10"/>
</linearGradient>
<linearGradient id="paint7_linear_532_36" x1="42.5609" y1="141.202" x2="102.381" y2="134.052" gradientUnits="userSpaceOnUse">
<stop stop-color="#388C10"/>
<stop offset="1" stop-color="#8F28D4"/>
</linearGradient>
</defs>
</svg>
