<svg width="10" height="11" viewBox="0 0 10 11" fill="none" xmlns="http://www.w3.org/2000/svg">
<path fill-rule="evenodd" clip-rule="evenodd" d="M9.94293 5.50439C9.97949 5.73228 9.99776 5.96893 9.99776 6.20558C9.99776 8.85259 7.75877 11 4.99888 11C2.22985 11 0 8.85259 0 6.20558C0 5.96893 0.0182802 5.73228 0.0456964 5.50439C0.402106 7.80958 2.48573 9.58886 4.99888 9.58886C7.50289 9.58886 9.58652 7.80958 9.94293 5.50439Z" fill="#857979" fill-opacity="0.670588"/>
<path fill-rule="evenodd" clip-rule="evenodd" d="M4.99888 0C7.75877 0 9.99776 2.14741 9.99776 4.79443C10.1714 1.84064 0.182774 1.39363 0 4.79443C0 2.14741 2.22985 0 4.99888 0Z" fill="white" fill-opacity="0.6"/>
</svg>
