<svg width="10" height="11" viewBox="0 0 10 11" fill="none" xmlns="http://www.w3.org/2000/svg">
<path fill-rule="evenodd" clip-rule="evenodd" d="M9.94293 5.5C9.97949 5.72771 9.99776 5.96417 9.99776 6.20939C9.99776 8.8543 7.75877 11 4.99888 11C2.23899 11 0 8.8543 0 6.20939C0 5.96417 0.0182822 5.72771 0.0548371 5.5C0.411247 7.8121 2.48573 9.58998 4.99888 9.58998C7.51203 9.58998 9.58652 7.8121 9.94293 5.5Z" fill="black" fill-opacity="0.8"/>
<path fill-rule="evenodd" clip-rule="evenodd" d="M4.99888 0C7.75877 0 9.99776 2.1457 9.99776 4.79061C10.1714 1.84793 0.182774 1.40128 0 4.79061C0 2.1457 2.23899 0 4.99888 0Z" fill="white" fill-opacity="0.411765"/>
</svg>
