<svg width="63" height="63" viewBox="0 0 63 63" fill="none" xmlns="http://www.w3.org/2000/svg">
<path fill-rule="evenodd" clip-rule="evenodd" d="M53.9266 9.74061C48.3578 4.37622 40.6675 1.04926 32.1816 1.04926C15.0773 1.04926 1.23462 14.5118 1.23462 31.1466C1.23462 47.7556 15.0773 61.2439 32.1816 61.2439C43.1602 61.2439 52.8128 55.6732 58.3022 47.2656L48.7291 40.5601C45.3347 45.5118 38.7582 49.6125 32.1816 49.6125C21.6803 49.6125 13.1944 41.3338 13.1944 31.1466C13.1944 20.9336 21.6803 12.6807 32.1816 12.6807C36.4511 12.6807 40.4288 14.4087 43.5845 16.704L36.3185 21.7331L61.3518 30.734L61.2723 4.76307L53.9266 9.74061V9.74061Z" fill="white"/>
<path d="M32.1818 1.952V0.146667H33.0039L33.7994 0.172463L34.6214 0.224035L35.417 0.301423L36.2126 0.378791L37.0081 0.481955L37.7771 0.610895L38.5462 0.76565L39.3152 0.920386L40.0842 1.10092L40.8533 1.30724L41.5958 1.51355L42.3383 1.74568L43.0543 1.97778L43.7969 2.26148L44.5128 2.54517L45.2023 2.82887L45.9183 3.13836L46.6078 3.47362L47.2708 3.83469L47.9602 4.19575L48.5967 4.55681L49.2596 4.96947L49.8961 5.35633L50.5325 5.76896L51.1424 6.2074L51.7524 6.67162L52.3357 7.11007L52.9191 7.60008L53.5025 8.0901L54.0595 8.58012L54.5898 9.09592L53.2639 10.3854L52.76 9.92121L52.2297 9.43119L51.6993 8.99276L51.1424 8.52853L50.5856 8.1159L50.0286 7.67744L49.4452 7.26481L48.8618 6.87795L48.2519 6.49109L47.642 6.13003L47.0056 5.76896L46.3956 5.4337L45.7592 5.09841L45.0962 4.78894L44.4333 4.50524L43.7703 4.22155L43.1074 3.96365L42.4178 3.70575L41.7283 3.47362L41.0389 3.2673L40.3494 3.06099L39.6335 2.85466L38.9174 2.69993L38.1749 2.54517L37.4589 2.41623L36.7164 2.28727L35.9739 2.18411L35.2314 2.10674L34.4623 2.05517L33.7198 2.00358L32.9508 1.97778L32.1818 1.952V1.952ZM2.16296 31.1467H0.306641L0.333185 29.5477L0.465744 27.9745L0.651393 26.427L0.943137 24.9054L1.28781 23.3838L1.73866 21.9137L2.21597 20.4695L2.79938 19.0768L3.43587 17.7099L4.15184 16.3688L4.92089 15.0535L5.74296 13.8156L6.61803 12.5776L7.57273 11.4171L8.58036 10.2823L9.64116 9.22488L10.7284 8.19326L11.8952 7.21324L13.0885 6.28478L14.3614 5.4337L15.6343 4.6342L16.9867 3.88628L18.3657 3.18993L19.7711 2.57097L21.2031 2.00358L22.6882 1.53935L24.1997 1.10092L25.7643 0.76565L27.3289 0.481955L28.92 0.301423L30.5377 0.172463L32.1818 0.146667V1.952L30.6437 2.00358L29.1056 2.10674L27.5941 2.28727L26.1356 2.54517L24.677 2.88046L23.2451 3.2673L21.8661 3.73152L20.4872 4.24734L19.1613 4.84051L17.8618 5.48527L16.6155 6.18162L15.3956 6.95532L14.2288 7.75483L13.0885 8.63169L12.0013 9.53435L10.9671 10.5144L9.95937 11.5202L9.03121 12.5776L8.1296 13.6866L7.28099 14.8214L6.51193 16.0077L5.79597 17.2457L5.13301 18.4836L4.52305 19.7731L3.99274 21.1142L3.51542 22.4553L3.11758 23.848L2.77291 25.2665L2.50771 26.6849L2.32206 28.155L2.21597 29.6508L2.16296 31.1467V31.1467ZM32.1818 60.3156V62.1467L30.5377 62.1209L28.92 61.9919L27.3289 61.7856L25.7643 61.5277L24.1997 61.1666L22.6882 60.754L21.2031 60.264L19.7711 59.7224L18.3657 59.0776L16.9867 58.4071L15.6343 57.6592L14.3614 56.8597L13.0885 55.9828L11.8952 55.0543L10.7284 54.1001L9.64116 53.0685L8.58036 51.9853L7.57273 50.8763L6.61803 49.6899L5.74296 48.4778L4.92089 47.2141L4.15184 45.9245L3.43587 44.5834L2.79938 43.2166L2.21597 41.7981L1.73866 40.3538L1.28781 38.8838L0.943137 37.3879L0.651393 35.8663L0.465744 34.3189L0.333185 32.7457L0.306641 31.1467H2.16296L2.21597 32.6425L2.32206 34.1383L2.50771 35.5826L2.77291 37.0269L3.11758 38.4453L3.51542 39.8122L3.99274 41.1791L4.52305 42.4944L5.13301 43.7839L5.79597 45.0477L6.51193 46.2598L7.28099 47.4462L8.1296 48.6067L9.03121 49.6899L9.95937 50.7473L10.9671 51.779L12.0013 52.7332L13.0885 53.6616L14.2288 54.5127L15.3956 55.338L16.6155 56.0859L17.8618 56.8081L19.1613 57.4528L20.4872 58.0202L21.8661 58.5618L23.2451 59.0002L24.677 59.4129L26.1356 59.7224L27.5941 59.9803L29.1056 60.1608L30.6437 60.2898L32.1818 60.3156V60.3156ZM57.7455 48.0136L58.8593 46.5177L59.0979 47.7556L58.5675 48.5552L57.9841 49.3547L57.4007 50.1026L56.7909 50.8505L56.1544 51.5984L55.4914 52.2948L54.802 52.9911L54.1125 53.6616L53.37 54.3064L52.6274 54.9254L51.8584 55.5185L51.0894 56.1117L50.2673 56.6791L49.4452 57.1949L48.6231 57.7107L47.7481 58.2007L46.8995 58.665L45.9978 59.0776L45.0962 59.4903L44.1681 59.8771L43.2399 60.2382L42.2853 60.5477L41.3306 60.8571L40.376 61.115L39.3683 61.3472L38.3871 61.5535L37.3794 61.734L36.3451 61.8888L35.3109 61.9919L34.2767 62.0693L33.2425 62.1209L32.1818 62.1467V60.3156H33.163L34.1707 60.264L35.1253 60.1866L36.1065 60.0835L37.0612 59.9287L38.0158 59.774L38.9439 59.5676L39.8721 59.3355L40.8003 59.1034L41.7019 58.8197L42.6035 58.5102L43.4786 58.175L44.3272 57.8139L45.2023 57.4528L46.0244 57.0402L46.8465 56.6017L47.642 56.1375L48.4376 55.6733L49.2065 55.1575L49.9756 54.6417L50.6916 54.1001L51.4341 53.5327L52.1236 52.9395L52.8131 52.3206L53.4761 51.7016L54.1125 51.0568L54.7489 50.3863L55.3323 49.6899L55.9157 48.9936L56.4726 48.2715L57.003 47.5235L57.5068 46.7756L57.7455 48.0136V48.0136ZM58.8593 46.5177L59.5752 47.0335L59.0979 47.7556L58.8593 46.5177ZM49.2861 39.8122L58.8593 46.5177L57.7455 48.0136L48.1724 41.3081L47.9602 40.0443L49.2861 39.8122ZM47.9602 40.0443L48.4906 39.2706L49.2861 39.8122L47.9602 40.0443ZM32.1818 50.5152V48.7099L32.7652 48.6841L33.3221 48.6583L33.9055 48.6067L34.4889 48.5294L35.0723 48.4262L35.6557 48.2972L36.2126 48.1683L36.796 48.0136L37.3528 47.833L37.9098 47.6525L38.4666 47.4462L39.0235 47.2141L39.5804 46.9819L40.1108 46.724L40.6412 46.4404L41.1715 46.1567L41.6753 45.8472L42.1792 45.5377L42.683 45.2024L43.1604 44.8671L43.6377 44.5061L44.1151 44.145L44.5658 43.7582L44.9901 43.3971L45.4144 42.9844L45.8122 42.5976L46.21 42.1849L46.6078 41.7723L46.9525 41.3597L47.2972 40.9212L47.642 40.4828L47.9602 40.0443L49.5248 41.076L49.1801 41.5402L48.8088 42.0302L48.411 42.4944L48.0133 42.9586L47.6154 43.4229L47.1912 43.8613L46.7404 44.2998L46.263 44.7382L45.7857 45.1508L45.3083 45.5635L44.8045 45.9503L44.3006 46.3372L43.7703 46.6983L43.2134 47.0593L42.683 47.3946L42.1262 47.7299L41.5428 48.0393L40.9594 48.3488L40.376 48.6325L39.7926 48.8904L39.1826 49.1226L38.5727 49.3547L37.9628 49.5868L37.3264 49.7673L36.6899 49.9478L36.0535 50.1026L35.417 50.2315L34.7805 50.3347L34.1176 50.4121L33.4812 50.4636L32.8182 50.5152H32.1818V50.5152ZM12.2399 31.1467H14.1228L14.1492 32.0493L14.2023 32.9262L14.3349 33.8031L14.494 34.6799L14.6796 35.531L14.9448 36.3563L15.21 37.1816L15.5282 37.9811L15.8995 38.7548L16.2972 39.5027L16.7215 40.2507L17.1988 40.947L17.7027 41.6433L18.2331 42.3139L18.8165 42.9586L19.3999 43.5518L20.0363 44.145L20.6993 44.6866L21.3888 45.2024L22.0783 45.6924L22.8208 46.1567L23.5633 46.5693L24.3588 46.9562L25.1544 47.3172L25.9765 47.6267L26.7986 47.9104L27.6736 48.1425L28.5488 48.3488L29.4239 48.5036L30.3255 48.6067L31.2536 48.6841L32.1818 48.7099V50.5152H31.1475L30.1398 50.4378L29.1321 50.3089L28.1509 50.1284L27.1963 49.922L26.2416 49.6641L25.3135 49.3547L24.4118 48.9936L23.5368 48.6067L22.6882 48.1941L21.8396 47.7299L21.044 47.2141L20.2485 46.6725L19.506 46.1051L18.7635 45.4861L18.074 44.8413L17.411 44.1708L16.8011 43.4745L16.2177 42.7523L15.6608 41.9786L15.1304 41.2049L14.6531 40.3796L14.2023 39.5543L13.8045 38.6775L13.4598 37.8006L13.1415 36.8979L12.8764 35.9953L12.6378 35.041L12.4786 34.0868L12.346 33.1325L12.2665 32.1267L12.2399 31.1467V31.1467ZM32.1818 11.7523V13.5834L31.2536 13.6092L30.3255 13.6608L29.4239 13.7898L28.5488 13.9445L27.6736 14.125L26.7986 14.383L25.9765 14.6409L25.1544 14.9761L24.3588 15.3114L23.5633 15.6982L22.8208 16.1367L22.0783 16.5751L21.3888 17.0651L20.6993 17.5809L20.0363 18.1483L19.3999 18.7157L18.8165 19.3347L18.2331 19.9795L17.7027 20.65L17.1988 21.3205L16.7215 22.0427L16.2972 22.7648L15.8995 23.5385L15.5282 24.3122L15.21 25.1117L14.9448 25.9112L14.6796 26.7623L14.494 27.6134L14.3349 28.4645L14.2023 29.3413L14.1492 30.244L14.1228 31.1467H12.2399L12.2665 30.1409L12.346 29.1608L12.4786 28.1808L12.6378 27.2265L12.8764 26.2981L13.1415 25.3696L13.4598 24.467L13.8045 23.5901L14.2023 22.739L14.6531 21.9137L15.1304 21.0884L15.6608 20.3147L16.2177 19.541L16.8011 18.8189L17.411 18.1225L18.074 17.4262L18.7635 16.7815L19.506 16.1883L20.2485 15.6209L21.044 15.0793L21.8396 14.5635L22.6882 14.0993L23.5368 13.6608L24.4118 13.274L25.3135 12.9387L26.2416 12.6292L27.1963 12.3713L28.1509 12.1392L29.1321 11.9844L30.1398 11.8555L31.1475 11.7781L32.1818 11.7523V11.7523ZM44.1415 17.452L43.0543 15.9562L43.0278 17.452L42.7361 17.2457L42.4444 17.0394L42.1526 16.833L41.861 16.6267L41.5428 16.4462L41.2246 16.2656L40.9328 16.0851L40.6146 15.9046L40.2964 15.724L39.9782 15.5693L39.6335 15.3888L39.3152 15.234L38.9705 15.0793L38.6523 14.9503L38.3075 14.7956L37.9628 14.6666L37.618 14.5377L37.2733 14.4345L36.9285 14.3314L36.5573 14.2024L36.2126 14.125L35.8413 14.0219L35.4966 13.9445L35.1253 13.8671L34.7541 13.8156L34.4093 13.7382L34.038 13.6866L33.6668 13.6608L33.2955 13.635L32.9243 13.6092L32.553 13.5834H32.1818V11.7523H32.6061L33.0303 11.7781L33.4282 11.8039L33.8525 11.8297L34.2767 11.8813L34.6745 11.9329L35.0987 12.0102L35.4966 12.0876L35.8943 12.165L36.2921 12.2681L36.6899 12.3455L37.0876 12.4487L37.4855 12.5776L37.8567 12.7066L38.2544 12.8355L38.6257 12.9645L38.997 13.1192L39.3948 13.274L39.7395 13.4287L40.1108 13.5834L40.4821 13.764L40.8267 13.9445L41.198 14.125L41.5428 14.3056L41.8875 14.5119L42.2322 14.6924L42.5505 14.8987L42.8952 15.1051L43.2134 15.3114L43.5317 15.5435L43.8499 15.7498L44.1681 15.9819L44.1415 17.452V17.452ZM44.1681 15.9819L45.2023 16.7299L44.1415 17.452L44.1681 15.9819V15.9819ZM35.7617 20.9853L43.0543 15.9562L44.1415 17.452L36.849 22.4811L36.0004 22.5843L35.7617 20.9853V20.9853ZM36.0004 22.5843L34.3298 21.9911L35.7617 20.9853L36.0004 22.5843ZM61.0338 31.6109L36.0004 22.5843L36.6369 20.8821L61.6702 29.8829L62.3066 30.734L61.0338 31.6109ZM62.3066 30.734V32.0493L61.0338 31.6109L62.3066 30.734ZM62.2005 4.76314L62.3066 30.734L60.4239 30.7598L60.3178 4.78894L60.7155 4.01522L62.2005 4.76314ZM60.7155 4.01522L62.2005 3.03519V4.76314L60.7155 4.01522ZM53.3965 8.99276L60.7155 4.01522L61.8028 5.51106L54.4838 10.4886L53.2639 10.3854L53.3965 8.99276V8.99276ZM54.4838 10.4886L53.8208 10.927L53.2639 10.3854L54.4838 10.4886V10.4886Z" fill="black"/>
</svg>
