<svg width="22" height="22" viewBox="0 0 22 22" fill="none" xmlns="http://www.w3.org/2000/svg">
<path d="M16.9014 0.646774H4.57849C2.40704 0.646774 0.646729 2.50234 0.646729 4.79129V16.6887C0.646729 18.9776 2.40704 20.8332 4.57849 20.8332H16.9014C19.0728 20.8332 20.8332 18.9776 20.8332 16.6887V4.79129C20.8332 2.50234 19.0728 0.646774 16.9014 0.646774Z" fill="#FF0000"/>
<path fill-rule="evenodd" clip-rule="evenodd" d="M20.8332 16.6887C20.8332 18.9695 18.9694 20.8332 16.6886 20.8332H4.78273C2.51048 20.8332 0.646729 18.9695 0.646729 16.6887H20.8332Z" fill="#A80909"/>
<path fill-rule="evenodd" clip-rule="evenodd" d="M20.8332 4.79129C20.8332 2.51053 18.9694 0.646774 16.6886 0.646774H4.78273C2.51048 0.646774 0.646729 2.51053 0.646729 4.79129H20.8332Z" fill="#EB7C7C"/>
<path fill-rule="evenodd" clip-rule="evenodd" d="M4.78273 0.646774H6.36565L0.646729 6.87631V4.79129C0.646729 2.51053 2.51048 0.646774 4.78273 0.646774Z" fill="#FFFAFA"/>
<path d="M16.6887 1.29357H4.78279V0H16.6887V1.29357ZM21.48 4.7913H20.1864L20.1779 4.60407L20.1694 4.43386L20.1439 4.25515L20.1098 4.08494L20.0758 3.92325L20.0247 3.75304L19.9737 3.59135L19.9056 3.42965L19.8375 3.27646L19.7609 3.13179L19.6758 2.98711L19.5822 2.84244L19.4886 2.70627L19.3865 2.57011L19.2758 2.44245L19.1567 2.32331L19.0375 2.20417L18.9099 2.09353L18.7737 1.99141L18.6376 1.8978L18.5014 1.80418L18.3482 1.71908L18.2035 1.64249L18.0503 1.5744L17.8886 1.50632L17.727 1.45526L17.5567 1.4042L17.3951 1.37016L17.2248 1.33612L17.0461 1.3191L16.8674 1.30207L16.6887 1.29357V0H16.9355L17.1823 0.0255299L17.4206 0.051063L17.6504 0.0936138L17.8886 0.153186L18.1099 0.212757L18.3397 0.28935L18.5525 0.374452L18.7652 0.476578L18.9695 0.5787L19.1737 0.697844L19.3694 0.816988L19.5567 0.953152L19.7354 1.09783L19.9056 1.2425L20.0758 1.4042L20.229 1.56589L20.3822 1.74461L20.5268 1.92333L20.663 2.11055L20.7822 2.30629L20.9013 2.51054L21.0034 2.71478L21.1055 2.92754L21.1906 3.1403L21.2672 3.36157L21.3268 3.59135L21.3864 3.82112L21.4289 4.05941L21.4545 4.2977L21.4715 4.5445L21.48 4.7913ZM20.1864 16.6887V4.7913H21.48V16.6887H20.1864ZM16.6887 21.48V20.1864L16.8674 20.1779L17.0461 20.1694L17.2248 20.1439L17.3951 20.1098L17.5567 20.0758L17.727 20.0247L17.8886 19.9737L18.0503 19.9056L18.2035 19.8375L18.3482 19.7609L18.5014 19.6758L18.6376 19.5822L18.7737 19.4886L18.9099 19.3865L19.0375 19.2758L19.1567 19.1567L19.2758 19.0375L19.3865 18.9099L19.4886 18.7737L19.5822 18.6376L19.6758 18.4929L19.7609 18.3482L19.8375 18.2035L19.9056 18.0503L19.9737 17.8886L20.0247 17.7269L20.0758 17.5653L20.1098 17.395L20.1439 17.2248L20.1694 17.0461L20.1779 16.8759L20.1864 16.6887H21.48L21.4715 16.9355L21.4545 17.1823L21.4289 17.4206L21.3864 17.6589L21.3268 17.8886L21.2672 18.1184L21.1906 18.3397L21.1055 18.5524L21.0034 18.7652L20.9013 18.9694L20.7822 19.1737L20.663 19.3694L20.5268 19.5567L20.3822 19.7354L20.229 19.9141L20.0758 20.0758L19.9056 20.2375L19.7354 20.3907L19.5567 20.5268L19.3694 20.663L19.1737 20.7907L18.9695 20.9013L18.7652 21.0119L18.5525 21.1055L18.3397 21.1906L18.1099 21.2672L17.8886 21.3353L17.6504 21.3864L17.4206 21.4289L17.1823 21.4545L16.9355 21.48H16.6887ZM4.78279 20.1864H16.6887V21.48H4.78279V20.1864ZM0 16.6887H1.29357L1.30207 16.8759L1.31059 17.0461L1.33612 17.2248L1.37016 17.395L1.4042 17.5653L1.45526 17.7269L1.50633 17.8886L1.5659 18.0503L1.64249 18.2035L1.71908 18.3482L1.80419 18.4929L1.88929 18.6376L1.99141 18.7737L2.09353 18.9099L2.20417 19.0375L2.32331 19.1567L2.44246 19.2758L2.57011 19.3865L2.69777 19.4886L2.84244 19.5822L2.9786 19.6758L3.12328 19.7609L3.27646 19.8375L3.42965 19.9056L3.59135 19.9737L3.75304 20.0247L3.91474 20.0758L4.08495 20.1098L4.25515 20.1439L4.43386 20.1694L4.60407 20.1779L4.78279 20.1864V21.48H4.5445L4.2977 21.4545L4.05942 21.4289L3.82113 21.3864L3.59135 21.3353L3.36157 21.2672L3.1403 21.1906L2.92754 21.1055L2.71479 21.0119L2.51054 20.9013L2.30629 20.7907L2.11056 20.663L1.92333 20.5268L1.74461 20.3907L1.5659 20.2375L1.4042 20.0758L1.2425 19.9141L1.09783 19.7354L0.953156 19.5567L0.816988 19.3694L0.689339 19.1737L0.5787 18.9694L0.476581 18.7652L0.374455 18.5524L0.289353 18.3397L0.212757 18.1184L0.14468 17.8886L0.0936138 17.6589L0.0510662 17.4206L0.0255299 17.1823L0 16.9355V16.6887ZM1.29357 4.7913V16.6887H0V4.7913H1.29357ZM4.78279 0V1.29357L4.60407 1.30207L4.43386 1.3191L4.25515 1.33612L4.08495 1.37016L3.91474 1.4042L3.75304 1.45526L3.59135 1.50632L3.42965 1.5744L3.27646 1.64249L3.12328 1.71908L2.9786 1.80418L2.84244 1.8978L2.69777 1.99141L2.57011 2.09353L2.44246 2.20417L2.32331 2.32331L2.20417 2.44245L2.09353 2.57011L1.99141 2.70627L1.88929 2.84244L1.80419 2.98711L1.71908 3.13179L1.64249 3.27646L1.5659 3.42965L1.50633 3.59135L1.45526 3.75304L1.4042 3.92325L1.37016 4.08494L1.33612 4.25515L1.31059 4.43386L1.30207 4.60407L1.29357 4.7913H0V4.5445L0.0255299 4.2977L0.0510662 4.05941L0.0936138 3.82112L0.14468 3.59135L0.212757 3.36157L0.289353 3.1403L0.374455 2.92754L0.476581 2.71478L0.5787 2.51054L0.689339 2.30629L0.816988 2.11055L0.953156 1.92333L1.09783 1.74461L1.2425 1.56589L1.4042 1.4042L1.5659 1.2425L1.74461 1.09783L1.92333 0.953152L2.11056 0.816988L2.30629 0.697844L2.51054 0.5787L2.71479 0.476578L2.92754 0.374452L3.1403 0.28935L3.36157 0.212757L3.59135 0.153186L3.82113 0.0936138L4.05942 0.051063L4.2977 0.0255299L4.5445 0H4.78279Z" fill="black"/>
<path d="M13.0462 17.6674L17.6673 13.0463L15.361 10.74L17.6673 8.4337L13.0462 3.81261L10.7399 6.1189L8.43359 3.81261L3.8125 8.4337L6.11879 10.74L3.8125 13.0463L8.43359 17.6674L10.7399 15.3611L13.0462 17.6674Z" fill="white" stroke="black" stroke-width="2.36" stroke-miterlimit="22.9256"/>
</svg>
