<svg width="184" height="180" viewBox="0 0 184 180" fill="none" xmlns="http://www.w3.org/2000/svg">
<g clip-path="url(#clip0_401_2)">
<rect x="-1" y="-1" width="184" height="181" fill="#282846"/>
<line x1="91" y1="0.00555515" x2="91" y2="177.989" stroke="#FED049" stroke-width="36"/>
<line y1="-18" x2="110.355" y2="-18" transform="matrix(0.999985 -0.00546461 0.0054044 0.999985 37 145.811)" stroke="#FED049" stroke-width="36"/>
<line y1="-16.2689" x2="105.352" y2="-16.2689" transform="matrix(1 -0.000454908 0.000449896 1 40 70.3944)" stroke="#FED049" stroke-width="32.5379"/>
<line x1="5" y1="18.7583" x2="183" y2="18.7583" stroke="#FED049" stroke-width="36.9056"/>
<line x1="-1" y1="161.731" x2="183" y2="161.731" stroke="#FED049" stroke-width="32.5379"/>
<line x1="37.179" y1="-51.1278" x2="37.179" y2="304" stroke="black"/>
<line x1="73.8395" y1="-52.515" x2="73.8395" y2="302.613" stroke="black"/>
<line x1="110.5" y1="-51.1278" x2="110.5" y2="304" stroke="black"/>
<line x1="148.179" y1="-65" x2="148.179" y2="290.128" stroke="black"/>
<line x1="0.5" y1="-64" x2="0.5" y2="291.128" stroke="black"/>
<line x1="182.5" y1="-64" x2="182.5" y2="291.128" stroke="black"/>
<line x1="-1" y1="179.5" x2="183" y2="179.5" stroke="black"/>
<line x1="-1" y1="144.5" x2="183" y2="144.5" stroke="black"/>
<line x1="-1" y1="108.5" x2="183" y2="108.5" stroke="black"/>
<line x1="-0.000953501" y1="71.8394" x2="182.999" y2="71.4905" stroke="black"/>
<line x1="5.53394" y1="37.1606" x2="182.617" y2="37.1606" stroke="black"/>
<line x1="6.91724" y1="0.5" x2="184" y2="0.5" stroke="black"/>
<path fill-rule="evenodd" clip-rule="evenodd" d="M58.5185 24.6017C62.6588 24.6017 66.0779 21.3593 66.5981 17.1608C66.6433 17.5299 66.6666 17.9057 66.6666 18.2869C66.6666 23.3496 62.5625 27.4536 57.4999 27.4536C52.4373 27.4536 48.3333 23.3496 48.3333 18.2869C48.3333 15.3159 49.7467 12.675 51.9378 11C50.9522 12.4147 50.3703 14.1591 50.3703 16.0462C50.3703 20.7713 54.0184 24.6017 58.5185 24.6017Z" fill="#2F353A"/>
<path fill-rule="evenodd" clip-rule="evenodd" d="M31.2648 17.1608C30.7446 21.3593 27.3255 24.6017 23.1852 24.6017C18.6851 24.6017 15.0371 20.7713 15.0371 16.0462C15.0371 14.1591 15.6189 12.4147 16.6046 11C14.4134 12.675 13 15.3159 13 18.2869C13 23.3496 17.1041 27.4536 22.1667 27.4536C27.2293 27.4536 31.3333 23.3496 31.3333 18.2869C31.3333 17.9057 31.3101 17.5299 31.2648 17.1608Z" fill="#2F353A"/>
<path fill-rule="evenodd" clip-rule="evenodd" d="M173.265 17.1608C172.745 21.3593 169.326 24.6017 165.185 24.6017C160.685 24.6017 157.037 20.7713 157.037 16.0462C157.037 14.1591 157.619 12.4147 158.605 11C156.413 12.675 155 15.3159 155 18.2869C155 23.3496 159.104 27.4536 164.167 27.4536C169.229 27.4536 173.333 23.3496 173.333 18.2869C173.333 17.9057 173.31 17.5299 173.265 17.1608Z" fill="#2F353A"/>
<path fill-rule="evenodd" clip-rule="evenodd" d="M137.265 17.1608C136.745 21.3593 133.326 24.6017 129.185 24.6017C124.685 24.6017 121.037 20.7713 121.037 16.0462C121.037 14.1591 121.619 12.4147 122.605 11C120.413 12.675 119 15.3159 119 18.2869C119 23.3496 123.104 27.4536 128.167 27.4536C133.229 27.4536 137.333 23.3496 137.333 18.2869C137.333 17.9057 137.31 17.5299 137.265 17.1608Z" fill="#2F353A"/>
<path fill-rule="evenodd" clip-rule="evenodd" d="M94.1852 24.6017C98.3255 24.6017 101.745 21.3593 102.265 17.1608C102.31 17.5299 102.333 17.9057 102.333 18.2869C102.333 23.3496 98.2293 27.4536 93.1667 27.4536C88.1041 27.4536 84 23.3496 84 18.2869C84 15.3159 85.4134 12.675 87.6046 11C86.6189 12.4147 86.0371 14.1591 86.0371 16.0462C86.0371 20.7713 89.6851 24.6017 94.1852 24.6017Z" fill="#2F353A"/>
<path fill-rule="evenodd" clip-rule="evenodd" d="M57.5185 168.602C61.6588 168.602 65.0779 165.359 65.5981 161.161C65.6433 161.53 65.6666 161.906 65.6666 162.287C65.6666 167.35 61.5625 171.454 56.4999 171.454C51.4373 171.454 47.3333 167.35 47.3333 162.287C47.3333 159.316 48.7467 156.675 50.9378 155C49.9522 156.415 49.3703 158.159 49.3703 160.046C49.3703 164.771 53.0184 168.602 57.5185 168.602Z" fill="#2F353A"/>
<path fill-rule="evenodd" clip-rule="evenodd" d="M30.2648 161.161C29.7446 165.359 26.3255 168.602 22.1852 168.602C17.6851 168.602 14.0371 164.771 14.0371 160.046C14.0371 158.159 14.6189 156.415 15.6046 155C13.4134 156.675 12 159.316 12 162.287C12 167.35 16.1041 171.454 21.1667 171.454C26.2293 171.454 30.3333 167.35 30.3333 162.287C30.3333 161.906 30.3101 161.53 30.2648 161.161Z" fill="#2F353A"/>
<path fill-rule="evenodd" clip-rule="evenodd" d="M172.265 161.161C171.745 165.359 168.326 168.602 164.185 168.602C159.685 168.602 156.037 164.771 156.037 160.046C156.037 158.159 156.619 156.415 157.605 155C155.413 156.675 154 159.316 154 162.287C154 167.35 158.104 171.454 163.167 171.454C168.229 171.454 172.333 167.35 172.333 162.287C172.333 161.906 172.31 161.53 172.265 161.161Z" fill="#2F353A"/>
<path fill-rule="evenodd" clip-rule="evenodd" d="M136.265 161.161C135.745 165.359 132.326 168.602 128.185 168.602C123.685 168.602 120.037 164.771 120.037 160.046C120.037 158.159 120.619 156.415 121.605 155C119.413 156.675 118 159.316 118 162.287C118 167.35 122.104 171.454 127.167 171.454C132.229 171.454 136.333 167.35 136.333 162.287C136.333 161.906 136.31 161.53 136.265 161.161Z" fill="#2F353A"/>
<path fill-rule="evenodd" clip-rule="evenodd" d="M93.1852 168.602C97.3255 168.602 100.745 165.359 101.265 161.161C101.31 161.53 101.333 161.906 101.333 162.287C101.333 167.35 97.2293 171.454 92.1667 171.454C87.1041 171.454 83 167.35 83 162.287C83 159.316 84.4134 156.675 86.6046 155C85.6189 156.415 85.0371 158.159 85.0371 160.046C85.0371 164.771 88.6851 168.602 93.1852 168.602Z" fill="#2F353A"/>
<path fill-rule="evenodd" clip-rule="evenodd" d="M135.265 126.161C134.745 130.359 131.326 133.602 127.185 133.602C122.685 133.602 119.037 129.771 119.037 125.046C119.037 123.159 119.619 121.415 120.605 120C118.413 121.675 117 124.316 117 127.287C117 132.35 121.104 136.454 126.167 136.454C131.229 136.454 135.333 132.35 135.333 127.287C135.333 126.906 135.31 126.53 135.265 126.161Z" fill="#2F353A"/>
<path fill-rule="evenodd" clip-rule="evenodd" d="M99.2648 126.161C98.7446 130.359 95.3255 133.602 91.1852 133.602C86.6851 133.602 83.0371 129.771 83.0371 125.046C83.0371 123.159 83.6189 121.415 84.6046 120C82.4134 121.675 81 124.316 81 127.287C81 132.35 85.1041 136.454 90.1667 136.454C95.2293 136.454 99.3333 132.35 99.3333 127.287C99.3333 126.906 99.3101 126.53 99.2648 126.161Z" fill="#2F353A"/>
<path fill-rule="evenodd" clip-rule="evenodd" d="M56.1852 133.602C60.3255 133.602 63.7446 130.359 64.2648 126.161C64.3101 126.53 64.3333 126.906 64.3333 127.287C64.3333 132.35 60.2293 136.454 55.1667 136.454C50.1041 136.454 46 132.35 46 127.287C46 124.316 47.4134 121.675 49.6046 120C48.6189 121.415 48.0371 123.159 48.0371 125.046C48.0371 129.771 51.6851 133.602 56.1852 133.602Z" fill="#2F353A"/>
<path fill-rule="evenodd" clip-rule="evenodd" d="M136.265 53.1608C135.745 57.3593 132.326 60.6017 128.185 60.6017C123.685 60.6017 120.037 56.7713 120.037 52.0462C120.037 50.1591 120.619 48.4147 121.605 47C119.413 48.675 118 51.3159 118 54.2869C118 59.3496 122.104 63.4536 127.167 63.4536C132.229 63.4536 136.333 59.3496 136.333 54.2869C136.333 53.9057 136.31 53.5299 136.265 53.1608Z" fill="#2F353A"/>
<path fill-rule="evenodd" clip-rule="evenodd" d="M100.265 53.1608C99.7446 57.3593 96.3255 60.6017 92.1852 60.6017C87.6851 60.6017 84.0371 56.7713 84.0371 52.0462C84.0371 50.1591 84.6189 48.4147 85.6046 47C83.4134 48.675 82 51.3159 82 54.2869C82 59.3496 86.1041 63.4536 91.1667 63.4536C96.2293 63.4536 100.333 59.3496 100.333 54.2869C100.333 53.9057 100.31 53.5299 100.265 53.1608Z" fill="#2F353A"/>
<path fill-rule="evenodd" clip-rule="evenodd" d="M57.1852 60.6017C61.3255 60.6017 64.7446 57.3593 65.2648 53.1608C65.3101 53.5299 65.3333 53.9057 65.3333 54.2869C65.3333 59.3496 61.2293 63.4536 56.1667 63.4536C51.1041 63.4536 47 59.3496 47 54.2869C47 51.3159 48.4134 48.675 50.6046 47C49.6189 48.4147 49.0371 50.1591 49.0371 52.0462C49.0371 56.7713 52.6851 60.6017 57.1852 60.6017Z" fill="#2F353A"/>
<path fill-rule="evenodd" clip-rule="evenodd" d="M100.265 91.1608C99.7446 95.3593 96.3255 98.6017 92.1852 98.6017C87.6851 98.6017 84.0371 94.7713 84.0371 90.0462C84.0371 88.1591 84.6189 86.4147 85.6046 85C83.4134 86.675 82 89.3159 82 92.2869C82 97.3496 86.1041 101.454 91.1667 101.454C96.2293 101.454 100.333 97.3496 100.333 92.2869C100.333 91.9057 100.31 91.5299 100.265 91.1608Z" fill="#2F353A"/>
</g>
<defs>
<clipPath id="clip0_401_2">
<rect width="184" height="180" fill="white"/>
</clipPath>
</defs>
</svg>
