<svg width="960" height="160" viewBox="0 0 960 160" fill="none" xmlns="http://www.w3.org/2000/svg">
<path fill-rule="evenodd" clip-rule="evenodd" d="M0 1.91354H960V160H0V1.91354Z" fill="url(#paint0_linear_415_5812)"/>
<path d="M960 1.91354H0V140.89H960V1.91354Z" fill="url(#paint1_linear_415_5812)"/>
<path fill-rule="evenodd" clip-rule="evenodd" d="M960 121.754C960 127.256 960 135.282 960 140.89C955.707 141.05 945.84 140.89 940.8 140.89H19.2C13.4933 140.89 4.58667 140.89 0 140.89C0 136.452 0 126.591 0 121.754H946.213H960Z" fill="#46336D"/>
<path d="M960 3.82724H0V0H960V3.82724ZM0 138.977H960V142.804H0V138.977Z" fill="black"/>
<path fill-rule="evenodd" clip-rule="evenodd" d="M776.196 1.91354H774.223V99.5246H820.629L820.655 140.914H822.628L822.548 97.584L776.143 97.6106L776.196 1.91354Z" fill="#220058" fill-opacity="0.44"/>
<path fill-rule="evenodd" clip-rule="evenodd" d="M325.283 1.91354H321.312V140.914H325.283V1.91354Z" fill="#220058" fill-opacity="0.44"/>
<path fill-rule="evenodd" clip-rule="evenodd" d="M303.16 1.91354H299.215V140.914H303.16V1.91354Z" fill="#220058" fill-opacity="0.44"/>
<path fill-rule="evenodd" clip-rule="evenodd" d="M98.481 1.91354H96.6152V75.0421L68.4681 103.06V140.914H70.4406L70.4139 103.858L98.481 75.7864V1.91354Z" fill="#220058" fill-opacity="0.44"/>
<path fill-rule="evenodd" clip-rule="evenodd" d="M119.218 1.91354H117.353V75.0421L89.2054 103.06V140.914H91.1779L91.1512 103.858L119.218 75.7864V1.91354Z" fill="#220058" fill-opacity="0.44"/>
<path fill-rule="evenodd" clip-rule="evenodd" d="M75.2915 1.91354H73.4257V75.0421L45.3053 103.06V140.914H47.2511L47.2244 103.858L75.2915 75.7864V1.91354Z" fill="#220058" fill-opacity="0.44"/>
<rect x="297.216" y="4.0137" width="7.99632" height="135.571" fill="#220058" fill-opacity="0.44"/>
<path d="M73.3192 4.0137H75.9846V75.7865L73.3192 74.4574V4.0137Z" fill="#220058" fill-opacity="0.44"/>
<path d="M45.3321 102.369L47.9975 104.363V139.585H45.332L45.3321 102.369Z" fill="#220058" fill-opacity="0.44"/>
<path d="M73.3192 74.4574L75.9846 75.7865L47.9975 104.363L45.3321 102.369L73.3192 74.4574Z" fill="#220058" fill-opacity="0.44"/>
<path d="M95.9755 4.0137H98.641V75.7865L95.9755 74.4574V4.0137Z" fill="#220058" fill-opacity="0.44"/>
<path d="M68.0872 102.369L70.7526 103.698V139.585H68.0872L68.0872 102.369Z" fill="#220058" fill-opacity="0.44"/>
<path d="M95.9755 74.4574L98.641 75.7865L70.7526 103.698L68.0872 102.369L95.9755 74.4574Z" fill="#220058" fill-opacity="0.44"/>
<path d="M117.299 4.0137H120.365L119.964 76.0053L117.044 74.5343L117.299 4.0137Z" fill="#220058" fill-opacity="0.44"/>
<path d="M89.3118 102.369L91.9772 103.698V139.585H89.3118V102.369Z" fill="#220058" fill-opacity="0.44"/>
<path d="M117.044 74.5343L119.964 76.0053L91.9772 103.698L89.3118 102.369L117.044 74.5343Z" fill="#220058" fill-opacity="0.44"/>
<path d="M531.375 4H526V56.9412L531.375 54.2941V4Z" fill="#220058" fill-opacity="0.44"/>
<path d="M569 104.588L563.826 107.495L563.625 139H569V104.588Z" fill="#220058" fill-opacity="0.44"/>
<path d="M531.375 54.2941L526 56.9412L563.826 107.495L569 104.588L531.375 54.2941Z" fill="#220058" fill-opacity="0.44"/>
<defs>
<linearGradient id="paint0_linear_415_5812" x1="480" y1="1.91354" x2="480" y2="160" gradientUnits="userSpaceOnUse">
<stop offset="0.853901"/>
<stop offset="1" stop-opacity="0"/>
</linearGradient>
<linearGradient id="paint1_linear_415_5812" x1="479.425" y1="-44.2796" x2="480.34" y2="187.091" gradientUnits="userSpaceOnUse">
<stop stop-color="#513D80"/>
<stop offset="1" stop-color="#261450"/>
</linearGradient>
</defs>
</svg>
